<?xml version="1.0" encoding="UTF-8"?>
<svg width="82px" height="80px" viewBox="0 0 82 80" version="1.1" xmlns="http://www.w3.org/2000/svg" xmlns:xlink="http://www.w3.org/1999/xlink">
    <!-- Generator: Sketch 51.2 (57519) - http://www.bohemiancoding.com/sketch -->
    <title>Asset 1</title>
    <desc>Created with Sketch.</desc>
    <defs>
        <linearGradient x1="-1.89093308%" y1="49.7339812%" x2="110.886624%" y2="49.7339812%" id="linearGradient-1">
            <stop stop-color="#FFFFFF" offset="0%"></stop>
            <stop stop-color="#FFFFFF" stop-opacity="0" offset="100%"></stop>
        </linearGradient>
    </defs>
    <g id="Page-3" stroke="none" stroke-width="1" fill="none" fill-rule="evenodd">
        <g id="Desktop-Copy-37" transform="translate(-284.000000, -474.000000)" fill-rule="nonzero">
            <g id="Asset-1" transform="translate(284.000000, 474.000000)">
                <ellipse id="Oval" fill="#F99C0F" cx="39.2752174" cy="40.1642373" rx="38.9492754" ry="39.1949153"></ellipse>
                <path d="M23.44,45.7518644 C22.9051674,45.7483954 22.3944679,45.9755994 22.0370714,46.3760103 C21.6796749,46.7764211 21.509808,47.3116928 21.5704348,47.8464407 C22.6240436,56.8778191 30.2294586,63.6852766 39.2658696,63.6852766 C48.3022806,63.6852766 55.9076955,56.8778191 56.9613043,47.8464407 C57.0219311,47.3116928 56.8520642,46.7764211 56.4946677,46.3760103 C56.1372712,45.9755994 55.6265718,45.7483954 55.0917391,45.7518644 L23.44,45.7518644 Z" id="Shape" fill="#2E278C"></path>
                <path d="M32.7317391,32.4067797 C32.7211139,33.1791798 32.5401899,33.9395693 32.202029,34.6330508 C31.9191687,35.2484552 31.2014972,35.5262235 30.5817391,35.2601695 C28.5739935,34.3735869 26.28905,34.3735869 24.2813043,35.2601695 C23.6615463,35.5262235 22.9438748,35.2484552 22.6610145,34.6330508 C21.8553453,32.9461613 21.9866877,30.957839 23.0071492,29.3931044 C24.0276108,27.8283697 25.7880424,26.9159217 27.6465217,26.9884746 C30.5070794,27.1390959 32.7456331,29.5242775 32.7317391,32.4067797 Z" id="Shape" fill="#2E278C"></path>
                <path d="M56.4128986,32.4067797 C56.4022734,33.1791798 56.2213493,33.9395693 55.8831884,34.6330508 C55.6003281,35.2484552 54.8826566,35.5262235 54.2628986,35.2601695 C52.2551529,34.3735869 49.9702094,34.3735869 47.9624638,35.2601695 C47.3427057,35.5262235 46.6250342,35.2484552 46.3421739,34.6330508 C45.5365047,32.9461613 45.6678471,30.957839 46.6883087,29.3931044 C47.7087702,27.8283697 49.4692018,26.9159217 51.3276812,26.9884746 C54.1882388,27.1390959 56.4267925,29.5242775 56.4128986,32.4067797 Z" id="Shape" fill="#2E278C"></path>
                <g id="Group" opacity="0.1" style="mix-blend-mode: multiply;" transform="translate(3.173913, 17.983051)" fill="#2E278C">
                    <path d="M75.0505797,22.1749153 C75.0514482,40.836836 61.9788521,56.9122238 43.800273,60.6034564 C25.6216939,64.2946891 7.37741629,54.5783169 0.186956522,37.3762712 C11.4629421,54.0044441 33.4219124,59.3350097 50.9914678,49.7091255 C68.5610231,40.0832413 76.0293588,18.6302506 68.2702899,0.0752542373 C72.6975551,6.58313151 75.0614951,14.2881521 75.0505797,22.1749153 Z" id="Shape"></path>
                </g>
                <path d="M79.2033333,17.2961017 L71.6627536,2.6779661 C71.440696,2.24314807 70.9956677,1.96978394 70.5098551,1.96978394 C70.0240424,1.96978394 69.5790141,2.24314807 69.3569565,2.6779661 L61.8163768,17.3023729 C59.5824459,21.4817171 60.5981228,26.667446 64.2408969,29.6812149 C67.883671,32.6949837 73.1360391,32.6949837 76.7788132,29.6812149 C80.4215874,26.667446 81.4372643,21.4817171 79.2033333,17.3023729 L79.2033333,17.2961017 Z" id="Shape" fill="#70BEEB"></path>
                <path d="M71.6627536,2.6779661 C71.440696,2.24314807 70.9956677,1.96978394 70.5098551,1.96978394 C70.0240424,1.96978394 69.5790141,2.24314807 69.3569565,2.6779661 L61.8163768,17.3023729 C59.5824459,21.4817171 60.5981228,26.667446 64.2408969,29.6812149 C67.883671,32.6949837 73.1360391,32.6949837 76.7788132,29.6812149 C80.4215874,26.667446 81.4372643,21.4817171 79.2033333,17.3023729 L71.6627536,2.6779661 Z" id="Shape" fill="url(#linearGradient-1)" opacity="0.5" style="mix-blend-mode: overlay;"></path>
                <path d="M80.0046539,15.8963093 L79.0214757,14 C79.1009777,14.5964824 79.126117,15.1990305 79.0965796,15.8001197 C79.1633555,16.174903 79.2066823,16.5535355 79.2263045,16.9337829 C79.4607562,21.4304961 76.9156737,25.6070948 72.8266613,27.435895 C68.7376489,29.2646952 63.9514546,28.366991 60.7917131,25.178606 C60.6346777,25.0205803 60.4844699,24.8625545 60.3410898,24.697658 C61.6912726,28.5452962 65.0715343,31.3060249 69.0910614,31.8439383 C73.1105884,32.3818517 77.0903619,30.6060801 79.3928982,27.2472673 C81.6954345,23.8884545 81.931766,19.5140048 80.0046539,15.9237921 L80.0046539,15.8963093 Z" id="Shape" fill="#4AA0E9" opacity="0.25" style="mix-blend-mode: multiply;"></path>
            </g>
        </g>
    </g>
</svg>