<?xml version="1.0" encoding="UTF-8"?>
<svg width="152px" height="115px" viewBox="0 0 152 115" version="1.1" xmlns="http://www.w3.org/2000/svg" xmlns:xlink="http://www.w3.org/1999/xlink">
    <!-- Generator: Sketch 51.2 (57519) - http://www.bohemiancoding.com/sketch -->
    <title>Asset 10 Copy</title>
    <desc>Created with Sketch.</desc>
    <defs></defs>
    <g id="Page-3" stroke="none" stroke-width="1" fill="none" fill-rule="evenodd">
        <g id="Asset-10-Copy" fill-rule="nonzero">
            <path d="M13.1047727,26.6590909 L13.1047727,40.3336364 C10.6122622,40.4024952 8.27904504,39.1120971 7.01248703,36.9642654 C5.74592903,34.8164336 5.74592903,32.1501573 7.01248703,30.0023255 C8.27904504,27.8544938 10.6122622,26.5640957 13.1047727,26.6329545 L13.1047727,26.6590909 Z" id="Shape" fill="#FEE3AF"></path>
            <path d="M132.087955,99.9140909 L14.6938636,99.9140909 C14.2734461,99.9210988 13.8678254,99.7589791 13.568057,99.464125 C13.2682887,99.1692708 13.0994871,98.766385 13.0995455,98.3459091 L13.0995455,20.8306818 C13.0994871,20.4102059 13.2682887,20.0073201 13.568057,19.712466 C13.8678254,19.4176118 14.2734461,19.2554921 14.6938636,19.2625 L57.6045455,19.2625 C63.8035863,19.2623917 69.6453145,22.1639123 73.3909091,27.1034091 C77.1337955,22.1634481 82.9742707,19.261589 89.1720455,19.2625 L132.087955,19.2625 C132.954037,19.2625 133.656136,19.9645989 133.656136,20.8306818 L133.656136,98.325 C133.66173,98.7445186 133.498985,99.1487844 133.204285,99.4474134 C132.909585,99.7460424 132.50751,99.9141282 132.087955,99.9140909 Z" id="Shape" fill="#64B3FF" opacity="0.2"></path>
            <path d="M73.4327273,27.0302273 L73.4327273,99.9140909 L17.7361364,99.9140909 C43.2713636,85.8475 63.4172727,59.5072727 73.2811364,26.9413636 L73.3909091,27.0825 L73.4327273,27.0302273 Z" id="Shape" fill="#64B3FF" opacity="0.2"></path>
            <path d="M132.087955,19.2415909 L89.1720455,19.2415909 C82.9995656,19.2425044 77.180188,22.1203036 73.4327273,27.025 L73.4327273,99.9140909 L132.087955,99.9140909 C132.954037,99.9140909 133.656136,99.211992 133.656136,98.3459091 L133.656136,20.8306818 C133.66173,20.4111632 133.498985,20.0068974 133.204285,19.7082684 C132.909585,19.4096394 132.50751,19.2415536 132.087955,19.2415909 Z" id="Shape" fill="#64B3FF" opacity="0.5"></path>
            <path d="M133.677045,58.5454545 L133.677045,98.325 C133.677045,99.1910829 132.974947,99.8931818 132.108864,99.8931818 L78.6861364,99.8931818 C102.644779,95.8618093 123.151714,80.4426214 133.677045,58.5454545 Z" id="Shape" fill="#64B3FF" opacity="0.5"></path>
            <rect id="Rectangle-path" fill="#64B3FF" x="86.5113636" y="47.1186364" width="37.2704545" height="2.1275" rx="1.06375"></rect>
            <rect id="Rectangle-path" fill="#64B3FF" x="86.5113636" y="55.8011364" width="37.2704545" height="2.1275" rx="1.06375"></rect>
            <rect id="Rectangle-path" fill="#64B3FF" x="86.5113636" y="64.4836364" width="37.2704545" height="2.1275" rx="1.06375"></rect>
            <rect id="Rectangle-path" fill="#64B3FF" x="86.5113636" y="73.1713636" width="29.6229545" height="2.1275" rx="1.06375"></rect>
            <path d="M148.846591,35.7231818 L140.415,33.4545455 C133.397449,37.1228471 124.753173,35.1241393 120.058146,28.7476845 C115.363118,22.3712297 116.020952,13.5233151 121.607312,7.91127082 C127.193672,2.29922652 136.038475,1.60081361 142.4364,6.26654198 C148.834324,10.9322703 150.872664,19.5672868 147.236591,26.6015909 L149.5,35.0697727 C149.556991,35.2548588 149.506983,35.456286 149.370044,35.5932255 C149.233104,35.7301649 149.031677,35.7801728 148.846591,35.7231818 Z" id="Shape" fill="#FFA700"></path>
            <path d="M118.930909,26.7375 C118.408182,15.4570455 128.894091,5.82840909 139.84,5.82840909 C140.561031,5.8278174 141.281611,5.86445709 141.998864,5.93818182 C135.858132,1.76252103 127.653536,2.3504233 122.1709,7.35895926 C116.688264,12.3674952 115.362732,20.4856224 118.9675,26.9779545 C118.941364,26.91 118.930909,26.8263636 118.930909,26.7375 Z" id="Shape" fill="#DCE6EF" opacity="0.3" style="mix-blend-mode: overlay;"></path>
            <path d="M148.846591,35.7231818 L140.415,33.4545455 C133.424857,37.1081185 124.815519,35.1326047 120.1175,28.7970455 C122.566744,30.6782991 125.511389,31.8045669 128.590909,32.0379545 C133.228586,32.3927315 137.792258,30.7192275 141.101165,27.4504281 C144.410073,24.1816287 146.139105,19.6387043 145.840909,14.9970455 C145.651151,11.9065083 144.560866,8.93911454 142.704545,6.46090909 C148.932126,11.1689995 150.859589,19.6803042 147.267955,26.6120455 L149.5,35.0697727 C149.556991,35.2548588 149.506983,35.456286 149.370044,35.5932255 C149.233104,35.7301649 149.031677,35.7801728 148.846591,35.7231818 Z" id="Shape" fill="#CD8500"></path>
            <circle id="Oval" fill="#0081FF" cx="132.981818" cy="19.2415909" r="2.51431818"></circle>
            <circle id="Oval" fill="#0081FF" cx="125.140909" cy="19.2415909" r="2.51431818"></circle>
            <circle id="Oval" fill="#0081FF" cx="140.822727" cy="19.2415909" r="2.51431818"></circle>
            <circle id="Oval" fill="#FEE3AF" cx="146.745227" cy="79.3552273" r="5.05477273"></circle>
            <circle id="Oval" fill="#FEE3AF" cx="116.928864" cy="99.9140909" r="6.84772727"></circle>
            <rect id="Rectangle-path" fill="#64B3FF" x="23.8677273" y="64.4836364" width="19.1684091" height="2.1275" rx="1.06375"></rect>
            <rect id="Rectangle-path" fill="#64B3FF" x="23.8677273" y="30.5847727" width="12.4618182" height="2.1275" rx="1.06375"></rect>
            <rect id="Rectangle-path" fill="#64B3FF" x="23.8677273" y="47.1186364" width="37.2704545" height="2.1275" rx="1.06375"></rect>
            <rect id="Rectangle-path" fill="#64B3FF" x="23.8677273" y="55.8011364" width="37.2704545" height="2.1275" rx="1.06375"></rect>
            <path d="M101.539773,41.3268182 L97.2272727,38.0911364 C96.5478263,37.5797302 95.6119464,37.5797302 94.9325,38.0911364 L90.6461364,41.3268182 C90.3627696,41.5381125 89.9845194,41.5716883 89.6683649,41.4136111 C89.3522105,41.2555338 89.152121,40.9327882 89.1511364,40.5793182 L89.1511364,19.2415909 L103.029554,19.2415909 L103.029545,40.5793182 C103.031037,40.9326903 102.832224,41.2564081 102.516378,41.4148854 C102.200531,41.5733628 101.822172,41.5392435 101.539773,41.3268182 Z" id="Shape" fill="#64B3FF"></path>
            <path d="M91.2890909,34.6829545 C90.5938636,35.4304545 89.8881818,36.1465909 89.1981818,36.8470455 L89.1981818,40.5793182 C89.1991664,40.9327882 89.3992559,41.2555338 89.7154104,41.4136111 C90.0315648,41.5716883 90.409815,41.5381125 90.6931818,41.3268182 L94.9795455,38.0911364 C95.6589919,37.5797302 96.5948718,37.5797302 97.2743182,38.0911364 L101.565909,41.3268182 C101.848309,41.5392435 102.226668,41.5733628 102.542514,41.4148854 C102.858361,41.2564081 103.057174,40.9326903 103.055682,40.5793182 L103.05569,19.7538636 C99.9584663,25.3283681 95.98563,30.3689813 91.2890909,34.6829545 Z" id="Shape" fill="#2E9AFF"></path>
            <path d="M48.9325,74.3004545 L55.7279545,74.3004545 L55.7279545,107.995455 C55.7279545,108.861537 55.0258556,109.563636 54.1597727,109.563636 L50.5529545,109.563636 C49.6868716,109.563636 48.9847727,108.861537 48.9847727,107.995455 L48.9847727,74.3004545 L48.9325,74.3004545 Z" id="Shape" fill="#0081FF"></path>
            <path d="M49.0788636,102.794318 C49.0318182,102.935455 48.9795455,103.076591 48.9325,103.222955 L48.9325,107.995455 C48.9325,108.861537 49.6345989,109.563636 50.5006818,109.563636 L54.1075,109.563636 C54.9735829,109.563636 55.6756818,108.861537 55.6756818,107.995455 L55.6756818,79.4075 C55.141934,87.579602 52.894285,95.5478916 49.0788636,102.794318 Z" id="Shape" fill="#0066CF"></path>
            <path d="M51.0025,109.584545 L53.6161364,109.584545 L53.6161364,113.494545 C53.6161364,114.222055 53.0263733,114.811818 52.2988636,114.811818 C51.571354,114.811818 50.9815909,114.222055 50.9815909,113.494545 L50.9815909,109.584545 L51.0025,109.584545 Z" id="Shape" fill="#64B3FF"></path>
            <path d="M48.9325,103.96 L48.9325,106.186818 L46.0888636,106.186818 C45.6182919,106.186818 45.2368182,105.805344 45.2368182,105.334773 L45.2368182,94.1170455 C45.2368182,93.5396569 45.7048841,93.0715909 46.2822727,93.0715909 C46.8596613,93.0715909 47.3277273,93.5396569 47.3277273,94.1170455 L47.3277273,103.96 L48.9325,103.96 Z" id="Shape" fill="#64B3FF"></path>
            <path d="M55.7070455,74.3004545 L52.9940909,70.1186364 C52.8472103,69.8883204 52.5929381,69.7489002 52.3197727,69.7489002 C52.0466073,69.7489002 51.7923351,69.8883204 51.6454545,70.1186364 L48.9325,74.3004545 L55.7070455,74.3004545 Z" id="Shape" fill="#64B3FF"></path>
            <path d="M1.19704545,86.5845455 L8.05522727,84.7445455 C13.8952965,87.7997091 21.0909031,86.1377804 24.999658,80.8309859 C28.9084129,75.5241913 28.3614702,68.1594364 23.711701,63.4882396 C19.0619317,58.8170428 11.6997693,58.2362452 6.37505961,62.1205598 C1.05034993,66.0048745 -0.644644249,73.192764 2.38363636,79.0468182 L0.522727273,85.9259091 C0.458264594,86.1163749 0.508767865,86.3269322 0.652614789,86.4674339 C0.796461713,86.6079355 1.00814895,86.6534712 1.19704545,86.5845455 Z" id="Shape" fill="#FFA700"></path>
            <path d="M18.1961364,62.445 C19.9709311,62.4412599 21.7351496,62.7182422 23.4234091,63.2656818 C19.7565458,59.7546453 14.4141255,58.630332 9.64317055,60.3656282 C4.87221564,62.1009243 1.5004879,66.3947557 0.946136364,71.4411364 C0.782690763,72.956898 0.878141715,74.4894161 1.22840909,75.9731818 C2.89590909,68.3622727 10.4022727,62.445 18.1961364,62.445 Z" id="Shape" fill="#DCE6EF" opacity="0.3" style="mix-blend-mode: overlay;"></path>
            <path d="M1.34863636,82.9045455 L0.522727273,85.9259091 C0.463153211,86.1116852 0.511991956,86.3151766 0.64939382,86.4536777 C0.786795684,86.5921787 0.989891494,86.6426374 1.17613636,86.5845455 L2.40977273,86.25 C1.95203832,85.1705532 1.59676412,84.0504769 1.34863636,82.9045455 Z" id="Shape" fill="#DCE6EF" opacity="0.3" style="mix-blend-mode: overlay;"></path>
            <path d="M27.5320455,73.9972727 C27.1740579,78.4590208 24.6014168,82.4435323 20.682378,84.6060508 C16.7633392,86.7685692 12.0207546,86.8205859 8.05522727,84.7445455 L1.19704545,86.5845455 C1.0092927,86.6522016 0.799400805,86.6070489 0.656078484,86.4681706 C0.512756164,86.3292924 0.461016704,86.1209264 0.522727273,85.9311364 L2.36272727,79.0468182 C2.075896,78.4913846 1.82787832,77.9167521 1.62045455,77.3270455 C5.24025667,81.9461357 11.454355,83.6557983 16.9275355,81.5384278 C22.4007159,79.4210572 25.8463069,73.974419 25.415,68.1218182 C25.3321349,66.9388404 25.087667,65.7727814 24.6884091,64.6561364 C26.7841431,67.297846 27.8003193,70.6359099 27.5320455,73.9972727 Z" id="Shape" fill="#CD8500"></path>
            <circle id="Oval" fill="#0081FF" cx="13.9359091" cy="72.8943182" r="1.94977273"></circle>
            <circle id="Oval" fill="#0081FF" cx="7.66318182" cy="72.8943182" r="1.94977273"></circle>
            <circle id="Oval" fill="#0081FF" cx="20.2086364" cy="72.8943182" r="1.94977273"></circle>
            <path d="M85.4815909,101.006591 C85.4815909,106.555295 80.9834772,111.053409 75.4347727,111.053409 C69.8860683,111.053409 65.3879545,106.555295 65.3879545,101.006591 C65.3876513,100.641516 65.4085958,100.276732 65.4506818,99.9140909 L85.4240909,99.9140909 C85.4617652,100.277047 85.4809567,100.641685 85.4815909,101.006591 Z" id="Shape" fill="#FEE3AF"></path>
            <path d="M62.2515909,13.3138636 C62.2537053,18.7014082 59.0099539,23.5596361 54.0331185,25.6228255 C49.0562831,27.6860148 43.3266474,26.5477805 39.5163302,22.7389587 C35.7060129,18.9301369 34.5655297,13.2009485 36.6267652,8.22330356 C38.6880008,3.24565861 43.544955,4.14917826e-07 48.9325,2.27463922e-16 C52.465312,-0.00416551058 55.8547029,1.39703626 58.3532702,3.89462294 C60.8518375,6.39220962 62.2543696,9.78105032 62.2515909,13.3138636 Z" id="Shape" fill="#FEE3AF"></path>
        </g>
    </g>
</svg>