<?xml version="1.0" encoding="UTF-8"?>
<svg width="79px" height="79px" viewBox="0 0 79 79" version="1.1" xmlns="http://www.w3.org/2000/svg" xmlns:xlink="http://www.w3.org/1999/xlink">
    <!-- Generator: Sketch 51.2 (57519) - http://www.bohemiancoding.com/sketch -->
    <title>Asset 2</title>
    <desc>Created with Sketch.</desc>
    <defs></defs>
    <g id="Page-3" stroke="none" stroke-width="1" fill="none" fill-rule="evenodd">
        <g id="Desktop-Copy-37" transform="translate(-891.000000, -474.000000)" fill-rule="nonzero">
            <g id="Asset-2" transform="translate(891.000000, 474.000000)">
                <path d="M78.6488265,39.6507263 C78.705408,54.5615305 70.2526102,68.2067836 56.854983,74.8322743 C43.4573557,81.457765 27.4467913,79.9103091 15.5749543,70.8424697 C3.70311735,61.7746303 -1.96366773,46.7646888 0.964285714,32.1423464 C1.08142857,31.5083054 1.2194898,30.8826071 1.37846939,30.2652514 C1.63576531,29.2015642 1.94326531,28.162905 2.28841837,27.1367598 C7.67554685,11.2409527 22.6298249,0.540784673 39.4582653,0.540784673 C56.2867057,0.540784673 71.2409838,11.2409527 76.6281122,27.1367598 C76.9732653,28.162905 77.2556633,29.2015642 77.5380612,30.2652514 C77.6384694,30.6782123 77.7388776,31.0974302 77.8267347,31.516648 C78.3849508,34.1919374 78.6604857,36.9181806 78.6488265,39.6507263 Z" id="Shape" fill="#F99C0F"></path>
                <path d="M39.4268878,59.3977654 C32.2983845,59.3950532 25.9429096,54.9200167 23.5561224,48.2227933 C23.347063,47.6910748 23.4452618,47.0880191 23.8123011,46.6495568 C24.1793403,46.2110945 24.7568731,46.0069262 25.3189542,46.1169278 C25.8810352,46.2269294 26.3383125,46.6336143 26.5118878,47.1778771 C28.4498892,52.6263 33.6194387,56.2671682 39.4174745,56.2671682 C45.2155102,56.2671682 50.3850598,52.6263 52.3230612,47.1778771 C52.5102702,46.6503216 52.9655394,46.2624201 53.5173732,46.1602914 C54.069207,46.0581628 54.6337688,46.2573227 54.9983936,46.6827495 C55.3630184,47.1081764 55.472311,47.6952378 55.285102,48.2227933 C52.8967351,54.9133328 46.549595,59.3860378 39.4268878,59.3977654 Z" id="Shape" fill="#2E278C"></path>
                <path d="M77.5255102,30.2652514 C77.2682143,29.2015642 76.9607143,28.162905 76.6155612,27.1367598 L66.2295918,27.1367598 C65.3190039,25.226303 63.3871395,24.008755 61.2656633,24.0082682 L17.6194898,24.0082682 C15.5002812,24.0111675 13.5714502,25.2283425 12.6618367,27.1367598 L2.25704082,27.1367598 C1.91188776,28.162905 1.6294898,29.2015642 1.34709184,30.2652514 C1.19229592,30.8826071 1.05423469,31.5083054 0.932908163,32.1423464 L12.1221429,32.1423464 L12.1221429,32.6241341 C12.1221416,37.5390622 16.1164383,41.5243673 21.0459184,41.5278212 L26.4554082,41.5278212 C28.8248921,41.5294814 31.097898,40.5921501 32.773965,38.9222049 C34.4500319,37.2522596 35.3917353,34.9866232 35.3917347,32.6241341 L35.3917347,28.3881564 L43.4808673,28.3881564 L43.4808673,32.6241341 C43.480865,34.9877085 44.4234297,37.2542947 46.1008546,38.9244201 C47.7782796,40.5945456 50.0528987,41.5311432 52.4234694,41.5278212 L57.8329592,41.5278212 C62.7648902,41.5278212 66.7630102,37.5415047 66.7630102,32.6241341 L66.7630102,31.516648 L77.8079082,31.516648 C77.7075,31.0974302 77.6070918,30.6782123 77.5255102,30.2652514 Z M32.2539796,32.6241341 C32.2539796,35.8136865 29.6606804,38.3993296 26.4616837,38.3993296 L21.0459184,38.3993296 C17.8469217,38.3993296 15.2536224,35.8136865 15.2536224,32.6241341 L15.2536224,30.052514 C15.2536187,28.4446277 16.5590912,27.1402102 18.1717347,27.1367598 L32.2539796,27.1367598 L32.2539796,32.6241341 Z M63.6315306,32.6241341 C63.6315306,35.8136865 61.0382314,38.3993296 57.8392347,38.3993296 L52.4234694,38.3993296 C50.887257,38.3993296 49.4139639,37.7908733 48.3276977,36.707814 C47.2414315,35.6247547 46.6311735,34.1558112 46.6311735,32.6241341 L46.6311735,27.1367598 L60.7008673,27.1367598 C62.3159621,27.1367598 63.6252551,28.4421874 63.6252551,30.052514 L63.6315306,32.6241341 Z" id="Shape" fill="#2E278C"></path>
                <path d="M61.2468367,24.0082682 L43.4808673,24.0082539 L43.4808673,32.6241341 C43.480865,34.9877085 44.4234297,37.2542947 46.1008546,38.9244201 C47.7782796,40.5945456 50.0528987,41.5311432 52.4234694,41.5278212 L57.8329592,41.5278212 C58.8681814,41.5279936 59.8956823,41.3501935 60.8703061,41.0022346 C64.406315,39.7231411 66.761524,36.3745633 66.7630102,32.6241341 L66.7630102,29.4956425 C66.763014,28.0381295 66.1814472,26.6404946 65.1466016,25.6110518 C64.111756,24.581609 62.7086616,24.0049443 61.2468367,24.0082682 Z" id="Shape" fill="#2E278C"></path>
                <path d="M17.6194898,24.0082682 C14.5823741,24.011721 12.1221409,26.4674911 12.1221429,29.4956425 L12.1221429,32.6241341 C12.1221416,37.5390622 16.1164383,41.5243673 21.0459184,41.5278212 L26.4554082,41.5278212 C28.8248921,41.5294814 31.097898,40.5921501 32.773965,38.9222049 C34.4500319,37.2522596 35.3917353,34.9866232 35.3917347,32.6241341 L35.3917347,24.0082682 L17.6194898,24.0082682 Z" id="Shape" fill="#2E278C"></path>
                <g id="Group" opacity="0.15" style="mix-blend-mode: screen;" transform="translate(45.520408, 23.670391)" fill="#FFFFFF">
                    <path d="M19.6297959,14.0406704 C18.9973591,14.94661 18.2014858,15.7274034 17.2827551,16.3432402 L9.15596939,0.337877095 L12.6702551,0.337877095 L19.6297959,14.0406704 Z" id="Shape"></path>
                    <path d="M15.3373469,17.3318436 C14.3627231,17.6798024 13.3352222,17.8576026 12.3,17.8574302 L9.27520408,17.8574302 L0.382806122,0.337877095 L6.71479592,0.337877095 L15.3373469,17.3318436 Z" id="Shape"></path>
                </g>
                <g id="Group" opacity="0.15" style="mix-blend-mode: screen;" transform="translate(15.397959, 23.670391)" fill="#FFFFFF">
                    <path d="M19.6297959,14.0406704 C18.9973591,14.94661 18.2014858,15.7274034 17.2827551,16.3432402 L9.12459184,0.337877095 L12.6388776,0.337877095 L19.6297959,14.0406704 Z" id="Shape"></path>
                    <path d="M15.3373469,17.3318436 C14.3627231,17.6798024 13.3352222,17.8576026 12.3,17.8574302 L9.27520408,17.8574302 L0.382806122,0.337877095 L6.71479592,0.337877095 L15.3373469,17.3318436 Z" id="Shape"></path>
                </g>
                <g id="Group" opacity="0.1" style="mix-blend-mode: multiply;" transform="translate(2.846939, 17.413408)" fill="#2E278C">
                    <path d="M75.8018878,22.2373184 C75.8027623,40.8569731 62.6386518,56.8959527 44.332814,60.5788253 C26.0269763,64.261698 7.65498007,54.5673317 0.414183673,37.4042458 C11.7691065,53.9947586 33.8818,59.3132514 51.5743506,49.7091682 C69.2669012,40.105085 76.7875187,18.7006819 68.9741327,0.187709497 C73.4323908,6.6808475 75.8128795,14.3684175 75.8018878,22.2373184 Z" id="Shape"></path>
                </g>
            </g>
        </g>
    </g>
</svg>