<?xml version="1.0" encoding="UTF-8"?>
<svg width="54px" height="32px" viewBox="0 0 54 32" version="1.1" xmlns="http://www.w3.org/2000/svg" xmlns:xlink="http://www.w3.org/1999/xlink">
    <!-- Generator: Sketch 50.2 (55047) - http://www.bohemiancoding.com/sketch -->
    <title>handshake</title>
    <desc>Created with Sketch.</desc>
    <defs></defs>
    <g id="Page-1" stroke="none" stroke-width="1" fill="none" fill-rule="evenodd">
        <g id="Desktop-Copy-5" transform="translate(-574.000000, -251.000000)" fill="#FFFFFF" fill-rule="nonzero">
            <g id="handshake" transform="translate(574.000000, 251.000000)">
                <path d="M1.3497891,21.313899 C2.0921731,21.313899 2.69957819,20.7142113 2.69957819,19.9812598 C2.69957819,19.2483082 2.0921731,18.6486205 1.3497891,18.6486205 C0.607405093,18.6486205 0,19.2483082 0,19.9812598 C0,20.7225403 0.607405093,21.313899 1.3497891,21.313899 Z M53.3166693,5.338886 L43.7416029,5.35554399 L39.4222778,1.19937533 C38.6545852,0.441436752 37.6422434,0.0249869859 36.5624121,0.0249869859 L28.0418685,0.0249869859 C27.1645055,0.0249869859 26.3461959,0.349817803 25.654429,0.857886517 C24.9457897,0.316501822 24.076863,0 23.1826277,0 L17.3194813,0 C16.2480862,0 15.2188721,0.424778761 14.4596157,1.17438834 L10.2415248,5.338886 L0.674894548,5.338886 C0.303702546,5.338886 0,5.63872983 0,6.00520562 L0,7.33784487 C0,7.70432067 0.303702546,8.0041645 0.674894548,8.0041645 L5.39915638,8.0041645 L5.39915638,23.9875065 L0.674894548,23.9875065 C0.303702546,23.9875065 0,24.2873503 0,24.6538261 L0,25.9864654 C0,26.3529412 0.303702546,26.652785 0.674894548,26.652785 L5.39915638,26.652785 C6.88392439,26.652785 8.08186221,25.4700677 8.09029839,24.0124935 L10.8911108,24.0124935 L17.766599,30.5091098 C20.2805812,32.5163977 23.8237775,32.4580947 26.2871426,30.4924518 L26.8945477,31.0088496 C27.7044212,31.6585112 28.6914545,32 29.7206686,32 C31.0704577,32 32.3443212,31.4169703 33.2132479,30.3675169 L35.0607718,28.1270172 C36.4443056,28.8682978 38.6798938,28.8766268 40.1224809,27.1275377 L40.9239181,26.1530453 C41.4469614,25.5200416 41.7337916,24.7704321 41.8097172,24.0124935 L45.9097016,24.0124935 C45.9181378,25.4700677 47.1245118,26.652785 48.6008436,26.652785 L53.3251055,26.652785 C53.6962975,26.652785 54,26.3529412 54,25.9864654 L54,24.6538261 C54,24.2873503 53.6962975,23.9875065 53.3251055,23.9875065 L48.6008436,23.9875065 L48.6008436,8.02082249 L53.3251055,8.0041645 C53.6962975,8.0041645 54,7.70432067 54,7.33784487 L54,6.00520562 C53.9915638,5.63040083 53.6878613,5.338886 53.3166693,5.338886 Z M38.8233089,24.4622592 L38.0218716,25.4367517 C37.5663178,25.9864654 36.7226996,26.1114003 36.1237307,25.6283186 L34.6220903,24.4289433 L31.1210748,28.6767309 C30.4883612,29.4513274 29.3494766,29.5262884 28.6408374,28.9599167 L26.0593657,26.7860489 L25.1820028,27.8521603 C23.7731604,29.5596044 21.2169973,29.8261322 19.5635057,28.510151 L11.9793782,21.338886 L8.09873457,21.338886 L8.09873457,7.9958355 L11.3551008,7.9958355 L16.3577566,3.05674128 C16.6108421,2.80687142 16.9567255,2.6652785 17.3110451,2.6652785 L23.1741915,2.6652785 C23.2501172,2.8485164 23.1995001,2.72358147 23.2669895,2.90681936 L18.2896422,7.42113483 C15.910639,9.57834461 15.7925324,13.1847996 17.9353226,15.4919313 C19.1416966,16.7912546 22.8789252,18.7652264 26.1099828,15.8417491 L28.0334323,14.1009891 L38.6292767,22.5882353 C39.202937,23.054659 39.2872989,23.8958876 38.8233089,24.4622592 Z M45.8928292,21.338886 L41.0673332,21.338886 C40.8564287,21.0473712 40.6202156,20.7641853 40.3249492,20.5226445 L30.0412436,12.2769391 L32.4371192,10.1030713 C32.985471,9.6033316 33.0276519,8.76210307 32.521481,8.22071838 C32.0153101,7.67933368 31.1632557,7.6460177 30.6149039,8.13742842 L24.2793314,13.8677772 C23.0645212,14.9588756 21.0229652,14.8672566 19.9178253,13.6845393 C18.7705046,12.451848 18.8464302,10.5195211 20.1034213,9.37844872 L27.1138885,3.03175429 C27.3669739,2.80687142 27.6875488,2.68193649 28.0249961,2.68193649 L36.5455398,2.68193649 C36.9082956,2.68193649 37.2457429,2.82352941 37.5072645,3.08172827 L42.6280269,8.0041645 L45.8928292,8.0041645 L45.8928292,21.338886 Z M52.6417747,18.6569495 C51.8993907,18.6569495 51.2919856,19.2566372 51.2919856,19.9895888 C51.2919856,20.7225403 51.8993907,21.322228 52.6417747,21.322228 C53.3841587,21.322228 53.9915638,20.7225403 53.9915638,19.9895888 C53.9915638,19.2483082 53.3841587,18.6569495 52.6417747,18.6569495 Z" id="Shape"></path>
            </g>
        </g>
    </g>
</svg>