<?xml version="1.0" encoding="UTF-8"?>
<svg width="94px" height="14px" viewBox="0 0 94 14" version="1.1" xmlns="http://www.w3.org/2000/svg" xmlns:xlink="http://www.w3.org/1999/xlink">
    <!-- Generator: Sketch 50.2 (55047) - http://www.bohemiancoding.com/sketch -->
    <title>Hostgator_Logo_Portal</title>
    <desc>Created with Sketch.</desc>
    <defs></defs>
    <g id="Page-2" stroke="none" stroke-width="1" fill="none" fill-rule="evenodd">
        <g id="Desktop-Copy-23" transform="translate(-31.000000, -32.000000)" fill="#0071FF" fill-rule="nonzero">
            <g id="Hostgator_Logo_Portal" transform="translate(31.000000, 32.000000)">
                <polygon id="Shape" points="12.0512821 0.823529412 12.0512821 14 8.16377171 14 8.16377171 9.08413175 3.88751034 9.08413175 3.88751034 14 0 14 0 0.823529412 3.89139785 0.823529412 3.89139785 5.62196753 8.16765922 5.62196753 8.16765922 0.823529412"></polygon>
                <path d="M17.2848181,3.29603931 C18.6490952,3.25939976 19.9739424,3.79658997 20.9844465,4.79613991 C21.9871656,5.77190942 22.5399188,7.18298177 22.4929597,8.64708308 C22.5373674,10.1118537 21.9851528,11.5230556 20.9844465,12.5021361 C19.972545,13.4987276 18.6483212,14.0341939 17.2848181,13.9981269 C15.9142682,14.0359188 14.5824164,13.5006418 13.562562,12.5021361 C12.5618557,11.5230556 12.0096411,10.1118537 12.0540489,8.64708308 C12.0070897,7.18298177 12.5598429,5.77190942 13.562562,4.79613991 C14.5810291,3.79468247 15.9134997,3.25768559 17.2848181,3.29603931 Z M17.2848181,10.6650266 C17.7456304,10.6729091 18.1855357,10.4558225 18.4840861,10.0732061 C18.807713,9.68317473 18.9818242,9.17278149 18.9705815,8.64708308 C18.9853414,8.11335798 18.8111486,7.59389593 18.4840861,7.19630086 C18.1841679,6.81615724 17.7447965,6.60083984 17.2848181,6.60859022 C16.819036,6.59871446 16.3730992,6.81386638 16.0666938,7.19630086 C15.7405416,7.59285599 15.5664134,8.11065429 15.5801983,8.64297322 C15.5679826,9.1700802 15.7421591,9.6821361 16.0666938,10.0732061 C16.37175,10.4581069 16.8182139,10.6750195 17.2848181,10.6650266 Z" id="Shape"></path>
                <path d="M23.2991453,11.1094314 L27.0033878,10.3510647 C27.1590618,10.9331624 27.5981423,11.2283105 28.3206292,11.2283105 C28.5496838,11.2422885 28.7779403,11.1897234 28.9792499,11.0766372 C29.113155,11.0133078 29.202169,10.8793385 29.2107651,10.7281984 C29.2141957,10.5899853 29.1395313,10.4621889 29.0191663,10.4002561 C28.8175806,10.3060366 28.6013693,10.2491384 28.3805038,10.2321856 L26.4206083,9.89194542 C24.4513989,9.56127021 23.4667942,8.55284746 23.4667942,6.86667716 C23.4307596,5.83056528 23.9124874,4.84731323 24.7441192,4.25953542 C25.681345,3.59745667 26.8005158,3.26127168 27.9374317,3.30030402 C29.0444432,3.25089575 30.1449264,3.49811801 31.1307442,4.01767793 C31.9105521,4.45154152 32.4864108,5.1907757 32.7274005,6.06731767 L29.2945895,6.76419518 C29.2211465,6.5191877 29.0710121,6.30592522 28.867484,6.15750182 C28.6183975,5.95810886 28.3089386,5.85507657 27.9933147,5.86645297 C27.7857916,5.85228915 27.5791702,5.90533743 27.4025519,6.01812631 C27.2806703,6.08838727 27.2034523,6.21899953 27.1989782,6.36246579 C27.1989782,6.6056897 27.3865853,6.7655616 27.7617995,6.84208149 L29.9931267,7.28070439 C31.9570139,7.66603666 32.9389575,8.75917786 32.9389575,10.560128 C32.9682199,11.5813826 32.466517,12.5415873 31.621716,13.0811849 C30.6143185,13.7246176 29.4421912,14.0430433 28.256763,13.9953242 C27.1146813,14.035492 25.9802693,13.7892656 24.9516845,13.2779503 C24.1081928,12.8510514 23.4999366,12.0528767 23.2991453,11.1094314 Z" id="Shape"></path>
                <path d="M41.0915977,10.4197364 L41.7777778,13.2871132 C40.917709,13.7559993 39.9555141,14.0010091 38.9781632,13.9999969 C37.7077499,13.9999969 36.7392558,13.6554364 36.0648388,12.9702759 C35.3588044,12.1962568 34.9950029,11.1653659 35.0571344,10.1147806 L35.0571344,6.94640849 L33.7435897,6.94640849 L33.7435897,3.95625732 L35.0571344,3.95625732 L35.0571344,0.823529412 L38.8840585,0.823529412 L38.8840585,3.95625732 L41.2837281,3.95625732 L41.2837281,6.95828989 L38.8840585,6.95828989 L38.8840585,9.63160385 C38.8840585,10.3365666 39.2447932,10.689048 39.9701835,10.689048 C40.3612368,10.7035129 40.7488374,10.6104292 41.0915977,10.4197364 Z" id="Shape"></path>
                <path d="M48.6870311,5.65707753 L56.1363724,5.65707753 C56.2019692,6.2579231 56.2347677,6.70649958 56.2347677,6.9986916 C56.3041155,8.88805218 55.5779069,10.7194348 54.234064,12.0441482 C52.8496682,13.3644365 50.9929194,14.0678147 49.0847119,13.9948386 C47.1554591,14.0406314 45.2880732,13.3101023 43.8984616,11.965956 C42.5164583,10.6908847 41.7448396,8.88260123 41.7788637,6.9986916 C41.7448483,5.11731207 42.5113346,3.31057245 43.8861622,2.03142724 C45.2787966,0.6841992 47.151232,-0.0465722466 49.0847119,0.0025446062 C50.5541542,-0.0346045441 52.0053555,0.335626154 53.27881,1.07254356 C54.4173228,1.7256311 55.2887573,2.76220469 55.7386916,3.99857916 L51.4789966,5.01919354 C51.0416844,4.1385021 50.2449561,3.69815637 49.0888117,3.69815637 C48.2295817,3.67006355 47.3996061,4.01320494 46.8093215,4.64057853 C46.2142595,5.2776161 45.8957095,6.1258694 45.9237641,6.9986916 C45.8979149,7.87267644 46.2194735,8.72108565 46.8175211,9.35680468 C47.4141386,9.98193375 48.24733,10.3230598 49.1093107,10.2951115 C50.3310519,10.2951115 51.2138761,9.85613752 51.7577832,8.97818967 L48.6911309,8.97818967 L48.6870311,5.65707753 Z" id="Shape"></path>
                <path d="M61.3663562,3.29920171 C62.792624,3.29920171 63.9015218,3.67228025 64.6930499,4.41843732 C65.4845779,5.1645944 65.8803419,6.21960037 65.8803419,7.58345524 L65.8803419,13.6962036 L62.2881197,13.6962036 L62.2881197,13.0402413 C61.5296495,13.6911982 60.5818693,14.0297461 59.6138677,13.9954864 C58.7199805,14.0426706 57.843253,13.7185027 57.1634184,13.0894385 C56.5448443,12.4753446 56.2077008,11.5981216 56.2416549,10.6910765 C56.2077577,9.74336791 56.6168029,8.84069022 57.330322,8.28861468 C58.0561001,7.71191452 59.0815461,7.42356444 60.4066601,7.42356444 L62.3032928,7.42356444 L62.3032928,7.14478048 C62.3133444,6.8808981 62.2196418,6.624735 62.0453507,6.43962105 C61.8730999,6.25888609 61.6404587,6.16126871 61.4004956,6.16903661 C61.1456392,6.14176968 60.8915637,6.22844427 60.6973696,6.40889897 C60.5031756,6.58935368 60.385791,6.84785817 60.3725208,7.12428166 L56.8903033,6.32892741 C57.1064293,5.39630008 57.6508296,4.59167922 58.4076094,4.08635642 C59.3047302,3.52574341 60.3309686,3.25271958 61.3663562,3.29920171 Z M61.0553085,11.1666491 C61.3732896,11.1751963 61.6833227,11.0586454 61.9277595,10.838668 C62.1823758,10.6029513 62.3223076,10.2535906 62.307086,9.89162246 L62.307086,9.51444416 L61.2563516,9.51444416 C60.9871955,9.50072776 60.7211288,9.58124599 60.4976985,9.74403095 C60.3254699,9.88470718 60.2202555,10.1010644 60.2107192,10.3341597 C60.2011828,10.5672551 60.2883179,10.7928047 60.4483861,10.9493616 C60.6216212,11.0949345 60.8359223,11.1716576 61.0553085,11.1666491 Z" id="Shape"></path>
                <path d="M73.2286846,10.4236991 L73.9145299,13.2910766 C73.0534612,13.7558033 72.0924591,13.9992688 71.116281,14 C69.8464874,14 68.8745466,13.6593999 68.2043777,12.9702788 C67.4968696,12.1971442 67.1317416,11.1660013 67.1932458,10.1147828 L67.1932458,6.94640994 L65.8803419,6.94640994 L65.8803419,3.96021853 L67.1932458,3.96021853 L67.1932458,0.823529412 L71.0222222,0.823529412 L71.0222222,3.96021853 L73.4207213,3.96021853 L73.4207213,6.96225181 L71.0222222,6.96225181 L71.0222222,9.6355664 C71.0222222,10.3405294 71.3827809,10.6930108 72.1078174,10.6930108 C72.4984865,10.7055197 72.8853931,10.6125573 73.2286846,10.4236991 Z" id="Shape"></path>
                <path d="M79.1445177,3.29593831 C80.5098852,3.25992512 81.8357566,3.79705787 82.8480753,4.79631161 C83.8473656,5.77497059 84.3994156,7.18444389 84.3566527,8.64795483 C84.3994986,10.1126722 83.8475301,11.5234414 82.8480753,12.5037087 C80.7125722,14.4987638 77.5613774,14.4987638 75.4258743,12.5037087 C74.4251254,11.5244502 73.8728872,10.1129917 73.9172969,8.64795483 C73.8703357,7.18358737 74.4231125,5.7722585 75.4258743,4.79631161 C76.4434313,3.79566196 77.7744329,3.25863838 79.1445177,3.29593831 Z M79.1445177,10.6662652 C79.6068832,10.6765639 80.0488656,10.4591058 80.3476082,10.0743371 C80.6712489,9.68423482 80.8453675,9.17374881 80.8341244,8.64795483 C80.8488849,8.11413271 80.6746846,7.59457622 80.3476082,7.19690888 C80.0479998,6.81622588 79.6083959,6.60076456 79.1482891,6.6090914 C78.6811785,6.59798889 78.233613,6.81329013 77.9263414,7.19690888 C77.6028746,7.59502971 77.4303112,8.11225557 77.4435966,8.64384422 C77.430351,9.17048729 77.6031607,9.68256532 77.9263414,10.0743371 C78.2314106,10.4593079 78.6778936,10.6762599 79.1445177,10.6662652 Z" id="Shape"></path>
                <path d="M93.2614127,3.29411765 C93.5088123,3.2959764 93.7557191,3.31751894 94,3.35855915 L93.8604891,7.74058163 L93.2614127,7.74058163 C92.401453,7.68291305 91.5474139,7.92458216 90.8322813,8.4279577 C90.2578246,8.88764045 89.9746995,9.69530734 89.9746995,10.8509584 L89.9746995,14 L85.965812,14 L85.965812,3.41870456 L89.9746995,3.41870456 L89.9746995,5.59253139 C90.6640476,4.06025556 91.7596187,3.29411765 93.2614127,3.29411765 Z" id="Shape"></path>
            </g>
        </g>
    </g>
</svg>