<?xml version="1.0" encoding="UTF-8"?>
<svg width="79px" height="80px" viewBox="0 0 79 80" version="1.1" xmlns="http://www.w3.org/2000/svg" xmlns:xlink="http://www.w3.org/1999/xlink">
    <!-- Generator: Sketch 51.2 (57519) - http://www.bohemiancoding.com/sketch -->
    <title>Asset 3</title>
    <desc>Created with Sketch.</desc>
    <defs></defs>
    <g id="Page-3" stroke="none" stroke-width="1" fill="none" fill-rule="evenodd">
        <g id="Desktop-Copy-37" transform="translate(-589.000000, -475.000000)" fill-rule="nonzero">
            <g id="Asset-3" transform="translate(589.000000, 475.000000)">
                <ellipse id="Oval" fill="#F99C0F" cx="39.5126206" cy="39.9092439" rx="39.4786314" ry="39.6852549"></ellipse>
                <path d="M39.4936709,59.9487102 C32.3214313,59.9413801 25.9285592,55.4012585 23.5253541,48.6082518 C23.2671954,47.7921228 23.6995747,46.9172671 24.502532,46.6310767 C25.3054892,46.3448863 26.1895293,46.7505431 26.5004637,47.5478618 C28.4511487,53.0769685 33.6545309,56.7717531 39.4905126,56.7717531 C45.3264943,56.7717531 50.5298765,53.0769685 52.4805615,47.5478618 C52.7718555,46.7202547 53.675411,46.286723 54.4987091,46.5795416 C55.3220072,46.8723602 55.7532817,47.7806447 55.4619877,48.6082518 C53.0556389,55.398862 46.6647138,59.937601 39.4936709,59.9487102 Z" id="Shape" fill="#2E278C"></path>
                <ellipse id="Oval" fill="#2E278C" cx="27.5111167" cy="31.972193" rx="5.36909387" ry="5.39719466"></ellipse>
                <ellipse id="Oval" fill="#2E278C" cx="51.5141246" cy="31.972193" rx="5.36909387" ry="5.39719466"></ellipse>
                <g id="Group" opacity="0.1" style="mix-blend-mode: multiply;" transform="translate(2.857501, 17.450564)" fill="#2E278C">
                    <path d="M76.1337511,22.4523298 C76.1346314,41.3477166 62.8843668,57.624212 44.4587243,61.361623 C26.0330818,65.0990341 7.54084789,55.2611073 0.252663241,37.843859 C11.6818997,54.6800551 33.9393124,60.0773076 51.747654,50.3310009 C69.5559956,40.5846941 77.1258326,18.8633204 69.2613109,0.0761956894 C73.7487467,6.66548837 76.1448148,14.466901 76.1337511,22.4523298 Z" id="Shape"></path>
                </g>
            </g>
        </g>
    </g>
</svg>