<?xml version="1.0" encoding="UTF-8"?>
<svg width="166px" height="24px" viewBox="0 0 166 24" version="1.1" xmlns="http://www.w3.org/2000/svg" xmlns:xlink="http://www.w3.org/1999/xlink">
    <!-- Generator: Sketch 50.2 (55047) - http://www.bohemiancoding.com/sketch -->
    <title>Hostgator_Logo_Portal</title>
    <desc>Created with Sketch.</desc>
    <defs></defs>
    <g id="Page-1" stroke="none" stroke-width="1" fill="none" fill-rule="evenodd">
        <g id="Loading-page---beginner" transform="translate(-428.000000, -70.000000)" fill="#1C9FFF" fill-rule="nonzero">
            <g id="Hostgator_Logo_Portal" transform="translate(428.000000, 70.000000)">
                <polygon id="Shape" points="21 0 21 23 14.2258065 23 14.2258065 14.4191764 6.77419355 14.4191764 6.77419355 23 0 23 0 0 6.78096774 0 6.78096774 8.37584511 14.2325806 8.37584511 14.2325806 0"></polygon>
                <path d="M31.5205816,5.00323093 C34.0024047,4.94162816 36.4124992,5.84481611 38.2507567,7.52537808 C40.074852,9.16595759 41.0803924,11.5384199 40.9949667,14.0000408 C41.075751,16.462787 40.0711904,18.8354671 38.2507567,20.4816135 C36.409957,22.1572013 34.0009967,23.0574909 31.5205816,22.9968506 C29.0273471,23.060391 26.6045103,22.1604198 24.7492433,20.4816135 C22.9288096,18.8354671 21.924249,16.462787 22.0050333,14.0000408 C21.9196076,11.5384199 22.925148,9.16595759 24.7492433,7.52537808 C26.6019867,5.84160899 29.0259491,4.93874611 31.5205816,5.00323093 Z M31.5205816,17.392847 C32.3588678,17.4060999 33.159121,17.0411082 33.7022286,16.3978081 C34.2909541,15.742041 34.6076883,14.8839073 34.5872363,14.0000408 C34.6140868,13.1026788 34.297204,12.2292975 33.7022286,11.5608135 C33.1566328,10.921671 32.3573508,10.5596538 31.5205816,10.5726846 C30.6732545,10.5560803 29.8620291,10.9178193 29.304632,11.5608135 C28.7113127,12.2275491 28.3945474,13.098133 28.4196242,13.9931308 C28.3974021,14.8793656 28.714255,15.7402948 29.304632,16.3978081 C29.8595746,17.0449489 30.671759,17.4096481 31.5205816,17.392847 Z" id="Shape"></path>
                <path d="M42,18.8700349 L48.1474663,17.5241423 C48.4058189,18.5572058 49.1345056,19.0810126 50.3335265,19.0810126 C50.7136597,19.1058196 51.0924683,19.0125311 51.4265566,18.8118341 C51.648782,18.6994418 51.7965073,18.4616832 51.8107733,18.1934511 C51.8164666,17.9481608 51.6925554,17.7213572 51.4928009,17.6114435 C51.1582543,17.4442297 50.7994356,17.3432511 50.4328929,17.3131646 L47.1803003,16.7093317 C43.9122507,16.1224741 42.2782258,14.3328007 42.2782258,11.3403117 C42.2184238,9.50149773 43.0178868,7.75649545 44.3980418,6.71335132 C45.9534378,5.53834344 47.8107851,4.94170744 49.6975817,5.01097911 C51.5347497,4.92329301 53.3610836,5.36204461 54.9971216,6.28412072 C56.2912709,7.05410939 57.2469513,8.36604698 57.6468916,9.92166817 L51.9498862,11.1584343 C51.828002,10.7236133 51.5788427,10.345131 51.2410727,10.0817203 C50.8276951,9.72785255 50.314125,9.54499853 49.7903237,9.56518852 C49.4459236,9.54005162 49.1030201,9.63419774 48.8099088,9.83436703 C48.6076373,9.95906092 48.4794882,10.1908618 48.4720631,10.445475 C48.4720631,10.8771306 48.7834111,11.1608593 49.406107,11.2966611 L53.1091606,12.0750963 C56.3683776,12.7589552 57.9979861,14.6989805 57.9979861,17.8951722 C58.0465493,19.7076185 57.2139361,21.411718 55.8119259,22.3693555 C54.1400746,23.5112719 52.1948421,24.0763901 50.2275357,23.9917017 C48.3321661,24.0629885 46.449525,23.6260043 44.7425119,22.7185601 C43.3426746,21.9609319 42.3332281,20.5443911 42,18.8700349 Z" id="Shape"></path>
                <path d="M72.8042948,16.750522 L74,21.7556306 C72.5012844,22.574088 70.8246087,23.0017614 69.1215227,22.9999945 C66.9077599,22.9999945 65.2201074,22.3985519 64.0449,21.2025799 C62.8145974,19.8515019 62.180654,18.0520449 62.2889214,16.2182108 L62.2889214,10.6877041 L60,10.6877041 L60,5.46828845 L62.2889214,5.46828845 L62.2889214,0 L68.9575403,0 L68.9575403,5.46828845 L73.1390922,5.46828845 L73.1390922,10.7084435 L68.9575403,10.7084435 L68.9575403,15.3748085 C68.9575403,16.6053462 69.5861396,17.2206151 70.8501708,17.2206151 C71.5316021,17.2458639 72.2070167,17.0833831 72.8042948,16.750522 Z" id="Shape"></path>
                <path d="M85.9441879,9.6978472 L98.8220386,9.6978472 C98.9354374,10.7278682 98.9921368,11.4968564 98.9921368,11.997757 C99.11202,15.2366609 97.8566062,18.376174 95.5334735,20.6471112 C93.140236,22.9104625 89.930431,24.1162537 86.6316681,23.9911519 C83.2965235,24.0696539 80.0683299,22.8173183 77.6660758,20.5130674 C75.2769743,18.3272309 73.9430591,15.2273164 74.0018772,11.997757 C73.9430741,8.77253497 75.2681168,5.67526705 77.6448135,3.48244669 C80.0522931,1.17291291 83.289216,-0.079838137 86.6316681,0.00436218206 C89.1719273,-0.0593220755 91.6806529,0.57535912 93.8821036,1.8386461 C95.8502774,2.95822474 97.3567465,4.73520804 98.1345584,6.85470712 L90.7707241,8.60433179 C90.0147321,7.09457502 88.6374093,6.33969664 86.6387555,6.33969664 C85.1533845,6.29153752 83.7185862,6.8797799 82.6981473,7.95527748 C81.6694498,9.04734189 81.118765,10.5014904 81.1672636,11.997757 C81.1225774,13.4960168 81.6784633,14.9504325 82.7123222,16.0402366 C83.743709,17.1118864 85.1840663,17.6966739 86.6741926,17.6487625 C88.7862452,17.6487625 90.312404,16.8962358 91.252669,15.3911823 L85.9512753,15.3911823 L85.9441879,9.6978472 Z" id="Shape"></path>
                <path d="M108.040499,5.00902281 C110.555434,5.00902281 112.510751,5.67113472 113.906451,6.99535854 C115.30215,8.31958236 116,10.1919281 116,12.6123958 L116,23.4608448 L109.665842,23.4608448 L109.665842,22.296692 C108.328433,23.4519616 106.657214,24.0527911 104.950339,23.9919895 C103.37415,24.0757286 101.828218,23.5004196 100.629467,22.3840035 C99.5387369,21.2941555 98.9442526,19.7373257 99.0041238,18.1275698 C98.9443529,16.4456474 99.6656215,14.8436425 100.923768,13.8638601 C102.203531,12.8403758 104.011698,12.3286336 106.348269,12.3286336 L109.692597,12.3286336 L109.692597,11.8338687 C109.710321,11.3655499 109.545095,10.9109308 109.237768,10.5824044 C108.934039,10.2616495 108.523823,10.0884055 108.100697,10.1021913 C107.651309,10.0538 107.203298,10.2076236 106.860876,10.5278811 C106.518454,10.8481387 106.31147,11.3069131 106.288071,11.7974889 L100.147884,10.3859536 C100.528979,8.73079629 101.488918,7.30281532 102.823347,6.40600618 C104.405238,5.4110721 106.214802,4.9265298 108.040499,5.00902281 Z M107.492029,18.9715806 C108.052724,18.9867496 108.599405,18.7799036 109.03042,18.3895042 C109.479384,17.9711719 109.726126,17.3511526 109.699286,16.7087585 L109.699286,16.0393707 L107.846528,16.0393707 C107.371925,16.0150278 106.902771,16.1579256 106.508796,16.4468242 C106.205106,16.6964858 106.019582,17.0804604 106.002766,17.4941406 C105.985951,17.9078208 106.139596,18.3081095 106.421844,18.5859549 C106.727309,18.8443069 107.105186,18.9804692 107.492029,18.9715806 Z" id="Shape"></path>
                <path d="M129.804878,16.7574391 L131,21.7625488 C129.499542,22.573746 127.824945,22.9987236 126.123902,23 C123.91122,23 122.217561,22.4054704 121.049756,21.2025849 C119.816885,19.8530509 119.180631,18.0531541 119.287805,16.2182146 L119.287805,10.6877066 L117,10.6877066 L117,5.47520289 L119.287805,5.47520289 L119.287805,0 L125.96,0 L125.96,5.47520289 L130.139512,5.47520289 L130.139512,10.7153592 L125.96,10.7153592 L125.96,15.3817253 C125.96,16.6122633 126.588293,17.2275323 127.851707,17.2275323 C128.532469,17.2493669 129.206674,17.0870978 129.804878,16.7574391 Z" id="Shape"></path>
                <path d="M140.514127,5.00306112 C142.997934,4.94251146 145.409891,5.84560279 147.25145,7.52566677 C149.069308,9.1711044 150.073569,11.5408782 149.995777,14.0015065 C150.07372,16.4641632 149.069607,18.8361158 147.25145,20.4842574 C143.366651,23.8385809 137.634159,23.8385809 133.749361,20.4842574 C131.928849,18.8378118 130.924246,16.4647004 131.005033,14.0015065 C130.919604,11.5394381 131.925187,9.16654451 133.749361,7.52566677 C135.600448,5.84325583 138.021738,4.94034805 140.514127,5.00306112 Z M140.514127,17.3949294 C141.355238,17.4122449 142.15927,17.0466285 142.702727,16.3997097 C143.291478,15.7438234 143.608226,14.8855337 143.587773,14.0015065 C143.614625,13.1039814 143.297728,12.2304413 142.702727,11.5618358 C142.157695,10.9217864 141.35799,10.5595272 140.520987,10.5735273 C139.671244,10.5548604 138.857055,10.9168504 138.298083,11.5618358 C137.709648,12.2312038 137.39573,13.1008253 137.419898,13.9945952 C137.395802,14.8800501 137.710169,15.7410164 138.298083,16.3997097 C138.853049,17.0469681 139.665268,17.4117336 140.514127,17.3949294 Z" id="Shape"></path>
                <path d="M164.712972,5 C165.144079,5.00312515 165.574327,5.03934503 166,5.10834671 L165.756895,12.475923 L164.712972,12.475923 C163.214447,12.3789637 161.726238,12.7852865 160.480082,13.6316212 C159.47906,14.4044944 158.9857,15.7624398 158.9857,17.7054575 L158.9857,23 L152,23 L152,5.2094703 L158.9857,5.2094703 L158.9857,8.86436597 C160.186925,6.28812199 162.096016,5 164.712972,5 Z" id="Shape"></path>
            </g>
        </g>
    </g>
</svg>