<?xml version="1.0" encoding="UTF-8"?>
<svg width="145px" height="115px" viewBox="0 0 145 115" version="1.1" xmlns="http://www.w3.org/2000/svg" xmlns:xlink="http://www.w3.org/1999/xlink">
    <!-- Generator: Sketch 51.2 (57519) - http://www.bohemiancoding.com/sketch -->
    <title>Asset 9 Copy</title>
    <desc>Created with Sketch.</desc>
    <defs></defs>
    <g id="Page-3" stroke="none" stroke-width="1" fill="none" fill-rule="evenodd">
        <g id="Asset-9-Copy" fill-rule="nonzero">
            <rect id="Rectangle-path" fill="#D1F3E4" x="0" y="21.3748826" width="19.2962441" height="11.3812207" rx="2.99"></rect>
            <path d="M111.555399,46.0239735 L143.178399,46.0239735 C144.184441,46.0239735 145,46.8395322 145,47.8455749 L145,67.5431575 C145,68.5492002 144.184441,69.3647589 143.178399,69.3647589 L111.555399,69.3647589 L111.555399,46.0239735 Z" id="Shape" fill="#D1F3E4"></path>
            <path d="M123.168779,73.42723 L136.175117,73.42723 C137.069663,73.42723 137.794836,74.1524026 137.794836,75.0469484 L137.794836,81.4664319 C137.794836,82.3609776 137.069663,83.0861502 136.175117,83.0861502 L123.168779,83.0861502 L123.168779,73.42723 Z" id="Shape" fill="#D1F3E4"></path>
            <path d="M111.555399,33.0908451 L111.555399,64.7347418 L28.2910798,64.7347418 L28.2910798,33.0908451 C28.2910798,28.5972437 31.9338634,24.9544601 36.4274648,24.9544601 L103.419014,24.9544601 C107.912615,24.9544601 111.555399,28.5972437 111.555399,33.0908451 Z" id="Shape" fill="#8682C1" opacity="0.4"></path>
            <path d="M34.6565728,50.9239437 C42.5508299,42.3061007 52.5463043,35.8842922 63.6657277,32.286385 C70.9982726,28.4102856 78.984753,25.9244639 87.221831,24.9544601 L36.4274648,24.9544601 C31.9338634,24.9544601 28.2910798,28.5972437 28.2910798,33.0908451 L28.2910798,57.6403756 C30.2670576,55.2677078 32.3932574,53.0242874 34.6565728,50.9239437 Z" id="Shape" fill="#FFFFFF" opacity="0.5" style="mix-blend-mode: overlay;"></path>
            <path d="M111.555399,49.7793427 L111.555399,64.7347418 L28.2910798,64.7347418 L28.2910798,60.1887324 C30.1159624,60.2247261 31.9462441,60.2481221 33.7819249,60.2589202 C60.9320031,61.2811424 86.8564945,57.7879499 111.555399,49.7793427 Z" id="Shape" fill="#8682C1" opacity="0.4"></path>
            <rect id="Rectangle-path" fill="#FEFFFF" x="33.3553991" y="32.9828638" width="34.4676056" height="18.6537559" rx="4.98"></rect>
            <rect id="Rectangle-path" fill="#FEFFFF" x="33.3553991" y="32.9828638" width="34.4676056" height="18.6537559" rx="4.98"></rect>
            <path d="M26.3420188,64.7347418 L113.50446,64.7347418 C121.096171,64.7347418 127.250469,70.8890398 127.250469,78.4807512 L127.250469,95.5633803 C127.250469,96.8395988 126.21589,97.8741784 124.939671,97.8741784 L14.9068075,97.8741784 C13.6305889,97.8741784 12.5960094,96.8395988 12.5960094,95.5633803 L12.5960094,78.4807512 C12.5960094,70.8890398 18.7503074,64.7347418 26.3420188,64.7347418 Z" id="Shape" fill="#201C5A"></path>
            <path d="M88.900939,71.8075117 C101.549879,71.8330675 114.180487,72.7713412 126.694366,74.6150235 C124.980068,68.753842 119.6058,64.7253405 113.499061,64.7239437 L26.3420188,64.7239437 C18.7503074,64.7239437 12.5960094,70.8782417 12.5960094,78.4699531 L12.5960094,83.9769953 C36.6470266,74.8597809 62.0820031,70.8032864 88.900939,71.8075117 Z" id="Shape" fill="#2B2579"></path>
            <path d="M52.7056338,89.3274648 L52.7056338,113.239906 C52.7056338,114.134452 51.9804612,114.859624 51.0859155,114.859624 L1.61971831,114.859624 C0.725172588,114.859624 1.09550255e-16,114.134452 0,113.239906 L0,89.3220657 C-1.09550255e-16,88.42752 0.725172588,87.7023474 1.61971831,87.7023474 L51.0859155,87.7023474 C51.5164286,87.702345 51.9292306,87.8737344 52.2331424,88.1786592 C52.5370542,88.483584 52.7070688,88.8969541 52.7056338,89.3274648 Z" id="Shape" fill="#63D7A2"></path>
            <path d="M51.0859155,87.7077465 L44.1535211,87.7077465 C42.3809649,90.0766206 40.3928183,92.2762337 38.214554,94.2784038 C32.8133291,100.174404 25.9749463,104.568382 18.3676056,107.030986 C12.6774734,110.037271 6.42044182,111.817638 7.10542736e-15,112.257277 L7.10542736e-15,113.239906 C7.25618748e-15,114.134452 0.725172588,114.859624 1.61971831,114.859624 L51.0913146,114.859624 C51.9858603,114.859624 52.7110329,114.134452 52.7110329,113.239906 L52.7110329,89.3274648 C52.7110353,88.8969517 52.5396459,88.4841497 52.2347211,88.1802379 C51.9297963,87.8763261 51.5164262,87.7063114 51.0859155,87.7077465 Z" id="Shape" fill="#009650" opacity="0.3"></path>
            <rect id="Rectangle-path" fill="#8682C1" x="33.3553991" y="79.5065728" width="53.699061" height="3.56877934" rx="1.78438967"></rect>
            <rect id="Rectangle-path" fill="#201C5A" x="28.2910798" y="0" width="44.5962441" height="18.6537559" rx="2.99"></rect>
            <rect id="Rectangle-path" fill="#201C5A" x="28.2910798" y="0" width="44.5962441" height="18.6537559" rx="2.99"></rect>
            <path d="M37.3507042,9.28098592 C46.9322593,4.22914388 57.6880608,1.82488396 68.5086854,2.31619718 C69.97723,2.31619718 71.4349765,2.37018779 72.8873239,2.45117371 L72.8873239,1.61971831 C72.8873239,0.725172588 72.1621514,5.47751277e-17 71.2676056,0 L29.9053991,0 C29.0108533,-5.47751277e-17 28.2856808,0.725172588 28.2856808,1.61971831 L28.2856808,13.0441315 C31.201671,11.5489447 34.2331028,10.2905124 37.3507042,9.28098592 Z" id="Shape" fill="#362F97"></path>
            <rect id="Rectangle-path" fill="#5E58AC" x="47.236385" y="18.6537559" width="6.7056338" height="6.30070423"></rect>
            <path d="M53.9420188,21.2615023 L53.9420188,18.6537559 L47.236385,18.6537559 L47.236385,22.3035211 C49.4434744,21.7945719 51.684561,21.4463194 53.9420188,21.2615023 Z" id="Shape" fill="#2B2579"></path>
            <rect id="Rectangle-path" fill="#5E58AC" x="77.0877934" y="40.9410798" width="24.8248826" height="10.700939" rx="4.98"></rect>
            <rect id="Rectangle-path" fill="#8682C1" x="77.0877934" y="40.9410798" width="24.8248826" height="10.700939" rx="4.98"></rect>
            <rect id="Rectangle-path" fill="#2B2579" x="77.0877934" y="32.9828638" width="24.8248826" height="3.47699531" rx="1.73849765"></rect>
            <rect id="Rectangle-path" fill="#8682C1" x="80.3110329" y="45.1901408" width="9.18920188" height="2.19741784" rx="1.09870892"></rect>
            <rect id="Rectangle-path" fill="#2B2579" x="80.3110329" y="45.1901408" width="9.18920188" height="2.19741784" rx="1.09870892"></rect>
            <rect id="Rectangle-path" fill="#8682C1" x="38.0903756" y="37.4910798" width="6.71643192" height="9.642723" rx="1.62"></rect>
            <rect id="Rectangle-path" fill="#8682C1" x="47.2309859" y="37.4910798" width="6.71643192" height="9.642723" rx="1.62"></rect>
            <rect id="Rectangle-path" fill="#8682C1" x="56.3715962" y="37.4910798" width="6.71643192" height="9.642723" rx="1.62"></rect>
            <g id="Group" opacity="0.5" transform="translate(37.793427, 37.253521)" fill="#DCE6EF">
                <path d="M0.793661972,8.3685446 C2.79826771,7.31817062 4.87705973,6.41591714 7.01338028,5.66901408 L7.01338028,1.11220657 C7.01482837,0.879794626 6.92314332,0.656482153 6.75880007,0.4921389 C6.59445681,0.327795646 6.37114434,0.236110594 6.13873239,0.237558685 L1.17159624,0.237558685 C0.688541554,0.237558685 0.296948357,0.629151883 0.296948357,1.11220657 L0.296948357,8.53591549 L0.793661972,8.3685446 Z" id="Shape"></path>
                <path d="M16.1539906,3.45 L16.1539906,1.11220657 C16.1554387,0.879794626 16.0637536,0.656482153 15.8994104,0.4921389 C15.7350671,0.327795646 15.5117547,0.236110594 15.2793427,0.237558685 L10.3122066,0.237558685 C9.82915188,0.237558685 9.43755869,0.629151883 9.43755869,1.11220657 L9.43755869,4.8915493 C11.6367521,4.24210681 13.8819879,3.76021135 16.1539906,3.45 Z" id="Shape"></path>
                <path d="M24.5495305,3.05586854 C24.8032864,3.05586854 25.0462441,3.05586854 25.2946009,3.05586854 L25.2946009,1.11220657 C25.296049,0.879794626 25.204364,0.656482153 25.0400207,0.4921389 C24.8756775,0.327795646 24.652365,0.236110594 24.4199531,0.237558685 L19.4366197,0.237558685 C18.953565,0.237558685 18.5619718,0.629151883 18.5619718,1.11220657 L18.5619718,3.18544601 C20.553562,3.02497659 22.5528627,2.98170949 24.5495305,3.05586854 Z" id="Shape"></path>
            </g>
            <path d="M18.9669014,46.4643192 L28.2910798,46.4643192 L28.2910798,58.0669014 L18.9669014,58.0669014 C18.0723557,58.0669014 17.3471831,57.3417288 17.3471831,56.4471831 L17.3471831,48.0516432 C17.364824,47.1697735 18.0848553,46.4641428 18.9669014,46.4643192 Z" id="Shape" fill="#D1F3E4"></path>
            <circle id="Oval" fill="#8682C1" cx="106.118545" cy="81.2882629" r="4.44342723"></circle>
            <circle id="Oval" fill="#009650" cx="26.3528169" cy="101.280986" r="9.14600939"></circle>
            <circle id="Oval" fill="#00BC65" cx="26.3528169" cy="101.280986" r="5.40985915"></circle>
            <path d="M6.65164319,87.7131455 C6.71768464,89.5184843 6.04597641,91.2729233 4.79115929,92.5725553 C3.53634216,93.8721873 1.80654428,94.6050225 -8.8817842e-16,94.6023547 L-8.8817842e-16,89.3220657 C-1.01117456e-15,88.42752 0.725172588,87.7023474 1.61971831,87.7023474 L6.65704225,87.7023474 L6.65164319,87.7131455 Z" id="Shape" fill="#009650"></path>
            <path d="M52.7056338,89.3274648 L52.7056338,94.6023488 C50.8995666,94.6034996 49.1706731,93.8701881 47.9161885,92.5709004 C46.6617038,91.2716128 45.9894878,89.5180609 46.0539906,87.7131455 L51.0859155,87.7131455 C51.978357,87.7131406 52.702659,88.4350283 52.7056338,89.3274648 Z" id="Shape" fill="#009650"></path>
            <path d="M6.65705102,114.848826 L1.61971831,114.848826 C0.725172588,114.848826 1.09550255e-16,114.123654 0,113.229108 L0,108.180986 C1.76742987,108.180984 3.46231309,108.883831 4.71106155,110.134605 C5.95981001,111.385379 6.65990913,113.081399 6.65705102,114.848826 Z" id="Shape" fill="#009650"></path>
            <path d="M52.7056338,108.191784 L52.7056338,113.239906 C52.7056338,114.134452 51.9804612,114.859624 51.0859155,114.859624 L46.0485828,114.859624 C46.0457247,113.092197 46.7458238,111.396177 47.9945723,110.145403 C49.2433207,108.894629 50.9382039,108.191782 52.7056338,108.191784 Z" id="Shape" fill="#009650"></path>
            <path d="M79.0638498,97.8471831 L112.667606,97.8471831 L112.667606,105.373474 C112.667606,106.26802 111.942433,106.993192 111.047887,106.993192 L80.678169,106.993192 C79.7836233,106.993192 79.0584507,106.26802 79.0584507,105.373474 L79.0584507,97.8471831 L79.0638498,97.8471831 Z" id="Shape" fill="#D1F3E4"></path>
            <path d="M83.95,16.1431925 L95.0234742,16.1431925 C95.9180199,16.1431925 96.6431925,16.8683651 96.6431925,17.7629108 L96.6431925,34.7213615 L82.3356808,34.7213615 L82.3356808,17.7575117 C82.3386436,16.867178 83.0596662,16.1461554 83.95,16.1431925 Z" id="Shape" fill="#DCE6EF"></path>
            <path d="M83.95,16.1431925 L95.0234742,16.1431925 C95.9180199,16.1431925 96.6431925,16.8683651 96.6431925,17.7629108 L96.6431925,34.7213615 L82.3356808,34.7213615 L82.3356808,17.7575117 C82.3386436,16.867178 83.0596662,16.1461554 83.95,16.1431925 Z" id="Shape" fill="#DCE6EF"></path>
            <path d="M83.8312207,31.0446009 C83.329108,31.0446009 82.8323944,31.0446009 82.3356808,31.0068075 L82.3356808,34.7213615 L96.6431925,34.7213615 L96.6431925,28.4530516 C92.5770483,30.1265895 88.2281273,31.0062701 83.8312207,31.0446009 Z" id="Shape" fill="#8682C1" opacity="0.4"></path>
            <path d="M37.7556338,13.5894366 C36.6388406,13.4554764 35.5772285,13.028969 34.678169,12.3530516 L35.6985915,10.8629108 C36.0188788,11.1139095 36.3582484,11.3395541 36.713615,11.5377934 C37.0521811,11.7192502 37.4162308,11.8484878 37.7934272,11.9211268 L37.7934272,9.84788732 C37.3729067,9.73479512 36.961431,9.59041768 36.5624413,9.41596244 C36.2433675,9.28495921 35.9479066,9.10257595 35.6877934,8.87605634 C35.4523462,8.6644555 35.2677779,8.40236842 35.1478873,8.10938967 C35.0235002,7.78761073 34.9629836,7.44468336 34.9697183,7.09976526 C34.965274,6.76050601 35.0314654,6.42403302 35.1640845,6.11173709 C35.2892602,5.82011173 35.4730298,5.55732116 35.7039906,5.33967136 C35.9573306,5.10948369 36.249916,4.92661786 36.5678404,4.79976526 C36.9280621,4.65882741 37.3059227,4.56799552 37.6908451,4.52981221 L37.6908451,3.74694836 L39.0460094,3.74694836 L39.0460094,4.52981221 C39.4902917,4.59229996 39.9253794,4.70832335 40.341784,4.87535211 C40.7410164,5.03724258 41.1197661,5.24564554 41.4701878,5.49624413 L40.6657277,7.01877934 C40.4084854,6.84883214 40.1416922,6.69380365 39.8666667,6.55446009 C39.6040486,6.4261708 39.329087,6.32486915 39.0460094,6.25211268 L39.0460094,8.21737089 C39.8441938,8.39292319 40.5862813,8.76396698 41.2056338,9.2971831 C41.664274,9.75835922 41.9073246,10.3914669 41.8751174,11.0410798 L41.8751174,11.0680751 C41.8810919,11.4097618 41.8129391,11.748684 41.6753521,12.0615023 C41.5492713,12.3510465 41.3655736,12.6118973 41.135446,12.828169 C40.8820533,13.0609711 40.587193,13.2441141 40.2661972,13.3680751 C39.9034909,13.5139676 39.5216144,13.6067091 39.1323944,13.6434272 L39.1323944,14.9338028 L37.7556338,14.9338028 L37.7556338,13.5894366 Z M37.8204225,6.13333333 C37.5675094,6.15027793 37.3269131,6.24878981 37.1347418,6.41408451 C36.9918253,6.55648261 36.9154045,6.75243325 36.9241784,6.95399061 L36.9241784,6.98098592 C36.9204774,7.16773652 36.9836706,7.34965631 37.1023474,7.49389671 C37.306567,7.684616 37.5524298,7.82510906 37.8204225,7.90422535 L37.8204225,6.13333333 Z M39.0460094,11.9859155 C39.6615023,11.8779343 39.9530516,11.6133803 39.9530516,11.1544601 L39.9530516,11.1274648 C39.9553408,10.929016 39.8841931,10.7367249 39.7532864,10.5875587 C39.543816,10.3983509 39.2948286,10.2581802 39.0244131,10.17723 L39.0460094,11.9859155 Z" id="Shape" fill="#00BC65"></path>
            <path d="M50.065493,13.5894366 C49.5099662,13.5180402 48.9657253,13.3765376 48.4457746,13.1683099 C47.9204069,12.9632803 47.4247242,12.6891115 46.971831,12.3530516 L47.9868545,10.8629108 C48.3140534,11.1148605 48.660675,11.3405256 49.0234742,11.5377934 C49.3622398,11.7187989 49.7262197,11.8480117 50.1032864,11.9211268 L50.1032864,9.84788732 C49.6812943,9.7338745 49.2680905,9.58952381 48.8669014,9.41596244 C48.5488183,9.28622226 48.2549348,9.10368593 47.9976526,8.87605634 C47.7819041,8.65466535 47.6161988,8.38953679 47.5117371,8.09859155 C47.3873499,7.77681261 47.3268333,7.43388524 47.3335681,7.08896714 C47.3166354,6.73982771 47.3774915,6.39128782 47.5117371,6.0685446 C47.6365048,5.77669238 47.8203293,5.51382333 48.0516432,5.29647887 C48.3061666,5.0651701 48.6007336,4.88220925 48.920892,4.75657277 C49.2794358,4.61624132 49.6554298,4.5254215 50.0384977,4.48661972 L50.0384977,3.74694836 L51.399061,3.74694836 L51.399061,4.52981221 C51.8433433,4.59229996 52.278431,4.70832335 52.6948357,4.87535211 C53.0934987,5.03843663 53.4721138,5.24676549 53.8232394,5.49624413 L52.9755869,7.01877934 C52.7209035,6.84772 52.455839,6.69264824 52.1819249,6.55446009 C51.9189942,6.42690385 51.6441074,6.32562976 51.3612676,6.25211268 L51.3612676,8.21737089 C52.1593762,8.39313726 52.9014138,8.76415603 53.520892,9.2971831 C53.9809329,9.75780695 54.2258869,10.3907682 54.1957746,11.0410798 L54.1957746,11.0680751 C54.1967918,11.4028732 54.1268686,11.7340884 53.9906103,12.0399061 C53.8645295,12.3294503 53.6808318,12.590301 53.4507042,12.8065728 C53.1984601,13.0382038 52.9055961,13.2212438 52.5868545,13.3464789 C52.2241482,13.4923714 51.8422717,13.5851128 51.4530516,13.621831 L51.4530516,14.9122066 L50.065493,14.9122066 L50.065493,13.5894366 Z M50.1356808,6.13333333 C49.8824977,6.14910713 49.6415426,6.24776591 49.45,6.41408451 C49.3033411,6.55436662 49.2245826,6.75126295 49.2340376,6.95399061 L49.2340376,6.98098592 C49.2293473,7.16882977 49.2947907,7.3516863 49.4176056,7.49389671 C49.6209758,7.68576532 49.8671291,7.82642436 50.1356808,7.90422535 L50.1356808,6.13333333 Z M51.3612676,11.9859155 C51.9767606,11.8887324 52.284507,11.6133803 52.284507,11.1544601 L52.284507,11.1274648 C52.2882898,10.9297222 52.2190955,10.7375158 52.0901408,10.5875587 C51.8806705,10.3983509 51.631683,10.2581802 51.3612676,10.17723 L51.3612676,11.9859155 Z" id="Shape" fill="#00BC65"></path>
            <path d="M62.3807512,13.5894366 C61.8249777,13.5193195 61.2805759,13.377775 60.7610329,13.1683099 C60.2471452,12.9603248 59.7625493,12.6862649 59.3194836,12.3530516 L60.334507,10.8629108 C60.661706,11.1148605 61.0083276,11.3405256 61.3711268,11.5377934 C61.7102486,11.717991 62.0741051,11.84716 62.450939,11.9211268 L62.450939,9.84788732 C62.0304184,9.73479512 61.6189427,9.59041768 61.2199531,9.41596244 C60.9008792,9.28495921 60.6054183,9.10257595 60.3453052,8.87605634 C60.1113585,8.66312733 59.9270457,8.40140321 59.8053991,8.10938967 C59.6854159,7.78654981 59.6268202,7.44413104 59.6326291,7.09976526 C59.6281847,6.76050601 59.6943762,6.42403302 59.8269953,6.11173709 C59.9502132,5.81902662 60.1342496,5.55585462 60.3669014,5.33967136 C60.6193703,5.10833569 60.9121766,4.92533176 61.2307512,4.79976526 C61.5909729,4.65882741 61.9688335,4.56799552 62.3537559,4.52981221 L62.3537559,3.74694836 L63.7089202,3.74694836 L63.7089202,4.52981221 C64.1532025,4.59229996 64.5882902,4.70832335 65.0046948,4.87535211 C65.4039272,5.03724258 65.7826769,5.24564554 66.1330986,5.49624413 L65.285446,7.01877934 C65.0307627,6.84772 64.7656981,6.69264824 64.491784,6.55446009 C64.2288534,6.42690385 63.9539666,6.32562976 63.6711268,6.25211268 L63.6711268,8.21737089 C64.4689338,8.39398852 65.2107729,8.76490806 65.8307512,9.2971831 C66.2871103,9.75983284 66.5297608,10.3918983 66.5002347,11.0410798 L66.5002347,11.0680751 C66.5043394,11.4101431 66.4343486,11.749046 66.2950704,12.0615023 C66.1711897,12.3522775 65.9871923,12.6135539 65.7551643,12.828169 C65.5009354,13.0598676 65.2062928,13.2428755 64.8859155,13.3680751 C64.5232092,13.5139676 64.1413328,13.6067091 63.7521127,13.6434272 L63.7521127,14.9338028 L62.3969484,14.9338028 L62.3807512,13.5894366 Z M62.4455399,6.13333333 C62.1926268,6.15027793 61.9520305,6.24878981 61.7598592,6.41408451 C61.6155313,6.5559297 61.5372077,6.7517387 61.5438967,6.95399061 L61.5438967,6.98098592 C61.5417081,7.16841917 61.6068439,7.35041632 61.7274648,7.49389671 C61.9316843,7.684616 62.1775472,7.82510906 62.4455399,7.90422535 L62.4455399,6.13333333 Z M63.6711268,11.9859155 C64.2866197,11.8887324 64.5943662,11.6133803 64.5943662,11.1544601 L64.5943662,11.1274648 C64.598149,10.9297222 64.5289547,10.7375158 64.4,10.5875587 C64.1905296,10.3983509 63.9415422,10.2581802 63.6711268,10.17723 L63.6711268,11.9859155 Z" id="Shape" fill="#00BC65"></path>
            <rect id="Rectangle-path" fill="#5E58AC" x="84.9056338" y="19.7389671" width="9.18920188" height="2.19741784" rx="1.09870892"></rect>
            <rect id="Rectangle-path" fill="#5E58AC" x="84.9056338" y="24.8680751" width="9.18920188" height="2.19741784" rx="1.09870892"></rect>
            <rect id="Rectangle-path" fill="#5E58AC" x="84.9056338" y="29.9971831" width="9.18920188" height="2.19741784" rx="1.09870892"></rect>
            <rect id="Rectangle-path" fill="#2B2579" x="105.238498" y="78.4969484" width="1.76549296" height="5.58802817" rx="0.882746479"></rect>
            <rect id="Rectangle-path" fill="#D1F3E4" x="103.257042" y="19.199061" width="19.2962441" height="11.3812207" rx="2.99"></rect>
        </g>
    </g>
</svg>