<?xml version="1.0" encoding="UTF-8"?>
<svg width="93px" height="50px" viewBox="0 0 93 50" version="1.1" xmlns="http://www.w3.org/2000/svg" xmlns:xlink="http://www.w3.org/1999/xlink">
    <!-- Generator: Sketch 51.2 (57519) - http://www.bohemiancoding.com/sketch -->
    <title>Group 13</title>
    <desc>Created with Sketch.</desc>
    <defs></defs>
    <g id="Page-3" stroke="none" stroke-width="1" fill="none" fill-rule="evenodd">
        <g id="Group-13" fill="#FFFFFF" fill-rule="nonzero">
            <path d="M0.482126001,48.9793736 L23.6075472,21.2804037 C24.2446606,20.5172875 25.3797709,20.415142 26.1428871,21.0522554 C26.2093473,21.1077419 26.2717177,21.1679512 26.3295126,21.2324143 L37.1887744,33.3445922 C37.8523916,34.084776 38.9903971,34.1468455 39.7305809,33.4832283 C39.774566,33.4437932 39.816583,33.4022166 39.8564795,33.3586496 L62.4896522,8.64318514 C63.1610331,7.91003609 64.2996295,7.85996305 65.0327786,8.53134389 C65.0728068,8.5679997 65.1111565,8.60644724 65.1477103,8.64656865 L91.9495097,38.0641973 C92.2850916,38.4325317 92.4710937,38.9128692 92.4710937,39.4111517 L92.4710937,48.9639056 C92.4710937,49.5161903 92.0233785,49.9639056 91.4710937,49.9639056 L0.942707372,49.9639056 C0.611336522,49.9639056 0.342707372,49.6952764 0.342707372,49.3639056 C0.342707372,49.2233552 0.392049137,49.0872651 0.482126001,48.9793736 Z" id="Path-2"></path>
            <ellipse id="Oval-5" cx="33.4" cy="7.23144105" rx="7.2" ry="7.23144105"></ellipse>
        </g>
    </g>
</svg>