<?xml version="1.0" encoding="UTF-8"?>
<svg width="616px" height="512px" viewBox="0 0 616 512" version="1.1" xmlns="http://www.w3.org/2000/svg" xmlns:xlink="http://www.w3.org/1999/xlink">
    <!-- Generator: Sketch 50.2 (55047) - http://www.bohemiancoding.com/sketch -->
    <title>Shape</title>
    <desc>Created with Sketch.</desc>
    <defs></defs>
    <g id="Page-1" stroke="none" stroke-width="1" fill="none" fill-rule="evenodd">
        <g id="store" fill="#FFFFFF" fill-rule="nonzero">
            <path d="M602,118.6 L537.1,15 C531.3,5.7 521,0 510,0 L106,0 C95,0 84.7,5.7 78.9,15 L14,118.6 C-15.6,165.8 4,229.2 52,249.4 L52,476.8 C52,496.2 66.3,512 84,512 L532,512 C549.7,512 564,496.2 564,476.8 L564,249.4 C612,229.2 631.6,165.8 602,118.6 Z M531.8,480 L85.2,480.3 C84.9,480.1 84,479 84,476.8 L84,256 L86.5,256 C116.1,256 142.3,243 160.3,222.9 C178.3,243 204.6,256 234.1,256 C263.7,256 289.9,243 307.9,222.9 C325.9,243 352.2,256 381.7,256 C411.3,256 437.5,243 455.5,222.9 C473.6,243 499.8,256 529.4,256 L531.9,256 L531.9,320 L84,320 L84,352 L532,352 L532,476.8 C532,478.8 531.2,479.9 531.8,480 Z M578.2,193.5 C570.4,210.1 556.1,221 538.9,223.3 C535.8,223.7 532.7,223.9 529.5,223.9 C510.2,223.9 492.5,215.9 479.5,201.4 L455.7,175 L431.9,201.6 C418.9,216.1 401.2,224.1 381.9,224.1 C362.6,224.1 344.9,216.1 331.9,201.6 L308,175 L284.2,201.6 C271.2,216.1 253.5,224.1 234.2,224.1 C214.9,224.1 197.2,216.1 184.2,201.6 L160.3,175 L136.5,201.6 C123.5,216.1 105.8,224.1 86.5,224.1 C83.3,224.1 80.2,223.9 77.1,223.5 C59.9,221.2 45.6,210.3 37.8,193.7 C29.1,175.1 30.3,152.9 41.1,135.8 L106,32 L510,32 L574.9,135.6 C585.7,152.8 586.9,174.9 578.2,193.5 Z" id="Shape"></path>
        </g>
    </g>
</svg>