<?xml version="1.0" encoding="UTF-8"?>
<svg width="38px" height="44px" viewBox="0 0 38 44" version="1.1" xmlns="http://www.w3.org/2000/svg" xmlns:xlink="http://www.w3.org/1999/xlink">
    <!-- Generator: Sketch 50.2 (55047) - http://www.bohemiancoding.com/sketch -->
    <title>Shape</title>
    <desc>Created with Sketch.</desc>
    <defs></defs>
    <g id="Page-1" stroke="none" stroke-width="1" fill="none" fill-rule="evenodd">
        <g id="Desktop-Copy-5" transform="translate(-406.000000, -245.000000)" fill="#FFFFFF" fill-rule="nonzero">
            <g id="user" transform="translate(406.000000, 245.000000)">
                <path d="M26.6,24.75 C24.165625,24.75 22.9950893,26.125 19,26.125 C15.0049107,26.125 13.8428571,24.75 11.4,24.75 C5.10625,24.75 0,29.9234375 0,36.3 L0,39.875 C0,42.1523437 1.82366071,44 4.07142857,44 L33.9285714,44 C36.1763393,44 38,42.1523437 38,39.875 L38,36.3 C38,29.9234375 32.89375,24.75 26.6,24.75 Z M35.2857143,39.875 C35.2857143,40.63125 34.675,41.25 33.9285714,41.25 L4.07142857,41.25 C3.325,41.25 2.71428571,40.63125 2.71428571,39.875 L2.71428571,36.3 C2.71428571,31.4445312 6.60758929,27.5 11.4,27.5 C13.0625,27.5 14.7165179,28.875 19,28.875 C23.275,28.875 24.9375,27.5 26.6,27.5 C31.3924107,27.5 35.2857143,31.4445312 35.2857143,36.3 L35.2857143,39.875 Z M19,22 C24.996875,22 29.8571429,17.0757812 29.8571429,11 C29.8571429,4.92421875 24.996875,0 19,0 C13.003125,0 8.14285714,4.92421875 8.14285714,11 C8.14285714,17.0757812 13.003125,22 19,22 Z M19,2.75 C23.4870536,2.75 27.1428571,6.45390625 27.1428571,11 C27.1428571,15.5460937 23.4870536,19.25 19,19.25 C14.5129464,19.25 10.8571429,15.5460937 10.8571429,11 C10.8571429,6.45390625 14.5129464,2.75 19,2.75 Z" id="Shape"></path>
            </g>
        </g>
    </g>
</svg>