<?xml version="1.0" encoding="UTF-8"?>
<svg width="151px" height="115px" viewBox="0 0 151 115" version="1.1" xmlns="http://www.w3.org/2000/svg" xmlns:xlink="http://www.w3.org/1999/xlink">
    <!-- Generator: Sketch 51.2 (57519) - http://www.bohemiancoding.com/sketch -->
    <title>Asset 8 Copy</title>
    <desc>Created with Sketch.</desc>
    <defs></defs>
    <g id="Page-3" stroke="none" stroke-width="1" fill="none" fill-rule="evenodd">
        <g id="Asset-8-Copy" fill-rule="nonzero">
            <path d="M141.538462,6.75662942 L141.538462,23.0991398 C141.538462,24.9986248 139.962444,26.5384615 138.018327,26.5384615 L129.511335,26.5384615 L129.511335,19.035008 C129.511335,16.6036673 127.494032,14.6326762 125.005563,14.6326762 L118.317308,14.6326762 L118.317308,6.75662942 C118.317308,4.85714448 119.893326,3.31730769 121.837442,3.31730769 L138.071129,3.31730769 C139.994594,3.34550046 141.538678,4.87711052 141.538462,6.75662942 Z" id="Shape" fill="#D2E9FF"></path>
            <rect id="Rectangle-path" fill="#D2E9FF" x="8.84615385" y="90.6730769" width="16.5865385" height="15.4807692" rx="3"></rect>
            <path d="M24.3521978,14.375 L124.926648,14.375 C127.383405,14.375 129.375,16.3497526 129.375,18.7857335 L129.375,88.4615385 L19.9038462,88.4615385 L19.9038462,18.7857335 C19.9038462,16.3497526 21.895441,14.375 24.3521978,14.375 Z" id="Shape" fill="#63D7A2" opacity="0.3"></path>
            <rect id="Rectangle-path" fill="#009650" x="26.5384615" y="21.0096154" width="96.2019231" height="60.8173077" rx="2"></rect>
            <path d="M26.5384615,59.7115385 L26.5384615,22.1648967 C26.5384615,21.5268524 27.0605351,21.0096154 27.7045455,21.0096154 L121.574301,21.0096154 C122.218311,21.0096154 122.740385,21.5268524 122.740385,22.1648967 L122.740385,59.7115385 L26.5384615,59.7115385 Z" id="Shape" fill="#2CC984"></path>
            <path d="M26.5384615,59.7115385 L26.5384615,22.1648967 C26.5384615,21.5268524 27.0605351,21.0096154 27.7045455,21.0096154 L121.574301,21.0096154 C122.218311,21.0096154 122.740385,21.5268524 122.740385,22.1648967 L122.740385,59.7115385 L26.5384615,59.7115385 Z" id="Shape" fill="#63D7A2"></path>
            <path d="M26.5384615,59.7115385 L26.5384615,22.1648967 C26.5384615,21.5268524 27.0605351,21.0096154 27.7045455,21.0096154 L121.574301,21.0096154 C122.218311,21.0096154 122.740385,21.5268524 122.740385,22.1648967 L122.740385,59.7115385 L26.5384615,59.7115385 Z" id="Shape" fill="#63D7A2"></path>
            <path d="M37.5961538,82.9326923 L37.5961538,70.3545673 C37.5961538,69.3621806 38.3808862,68.5576923 39.3489026,68.5576923 L56.8530205,68.5576923 C57.8210369,68.5576923 58.6057692,69.3621806 58.6057692,70.3545673 L58.6057692,82.9326923 L37.5961538,82.9326923 Z" id="Shape" fill="#00BC65"></path>
            <rect id="Rectangle-path" fill="#2CC984" x="53.0769231" y="36.4903846" width="43.125" height="5.52884615" rx="2.76442308"></rect>
            <rect id="Rectangle-path" fill="#2CC984" x="65.2403846" y="45.3365385" width="21.0096154" height="2.21153846" rx="1.10576923"></rect>
            <rect id="Rectangle-path" fill="#00BC65" x="65.2403846" y="70.7692308" width="44.2307692" height="2.21153846" rx="1.10576923"></rect>
            <path d="M122.740385,29.6271157 L122.740385,22.1733561 C122.740385,21.5306399 122.218311,21.0096154 121.574301,21.0096154 L27.7045455,21.0096154 C27.0605351,21.0096154 26.5384615,21.5306399 26.5384615,22.1733561 L26.5384615,50.8653846 C56.662296,36.687143 88.7296037,29.60772 122.740385,29.6271157 Z" id="Shape" fill="#FFFFFF" opacity="0.3" style="mix-blend-mode: overlay;"></path>
            <path d="M20.0854686,88.4615385 L132.001852,88.4615385 C132.482269,88.4615001 132.942678,88.6436019 133.280186,88.9671472 C133.617694,89.2906926 133.804164,89.7287099 133.797925,90.1833101 L133.797925,95.6079946 C133.797925,96.5467117 132.993796,97.3076923 132.001852,97.3076923 L18.3826975,97.3076923 C17.9033025,97.3077138 17.4437928,97.1263682 17.1064562,96.8040235 C16.7691196,96.4816787 16.5819543,96.0450886 16.5866238,95.5914391 L16.5866238,91.8002303 C16.5866238,89.9715606 18.15311,88.489131 20.0854686,88.489131 L20.0854686,88.4615385 Z" id="Shape" fill="#00BC65"></path>
            <rect id="Rectangle-path" fill="#00BC65" x="65.2403846" y="76.2980769" width="44.2307692" height="2.21153846" rx="1.10576923"></rect>
            <rect id="Rectangle-path" fill="#D2E9FF" x="49.7596154" y="93.9903846" width="9.95192308" height="8.84615385" rx="2.98"></rect>
            <path d="M129.375,50.8653846 L129.375,88.4615385 L19.9038462,88.4615385 L19.9038462,72.3677866 C26.4473092,73.0253038 33.0201456,73.3533473 39.5970696,73.350655 C72.6295559,73.3334117 103.443658,65.0911117 129.375,50.8653846 Z" id="Shape" fill="#00713C" opacity="0.2" style="mix-blend-mode: multiply;"></path>
            <rect id="Rectangle-path" fill="#D2E9FF" x="95.0961538" y="103.942308" width="11.0576923" height="11.0576923" rx="3.03"></rect>
            <path d="M126.512927,61.9230769 L142.194763,61.9230769 C146.718827,61.9262774 150.384617,65.6139448 150.384615,70.161806 L150.384615,93.3531617 C150.384615,102.254883 143.206104,109.471154 134.350962,109.471154 C125.495819,109.471154 118.317308,102.254883 118.317308,93.3531617 L118.317308,70.161806 C118.317308,65.6116816 121.986612,61.9230769 126.512927,61.9230769 Z" id="Shape" fill="#0081FF"></path>
            <path d="M144.631011,93.8098718 C139.53812,98.7886757 132.731598,101.615668 125.618353,101.706509 C123.909921,101.707367 122.205435,101.542079 120.528846,101.212969 C123.325205,106.308425 128.667614,109.473243 134.469172,109.471153 C143.259029,109.471153 150.384615,102.328321 150.384615,93.5171912 L150.384615,85.1442308 C149.019563,88.3655195 147.068489,91.3040775 144.631011,93.8098718 Z" id="Shape" fill="#0066CF"></path>
            <path d="M126.624005,61.9230769 L142.152911,61.9230769 C146.701021,61.9293407 150.38462,65.5592042 150.384615,70.0347003 L150.384615,78.5096154 L118.317308,78.5096154 L118.31731,70.1028175 C118.315779,67.9339375 119.190271,65.8533738 120.748244,64.3192115 C122.306218,62.7850491 124.419933,61.9230764 126.624005,61.9230769 Z" id="Shape" fill="#64B3FF"></path>
            <path d="M134.903846,61.9230769 L126.756177,61.9230769 C122.094557,61.9262114 118.317307,65.5378959 118.317308,69.9920503 L118.317308,78.5096154 L134.903846,78.5096154 L134.903846,61.9230769 Z" id="Shape" fill="#2E9AFF"></path>
            <path d="M124.68806,68.2828589 C127.557607,65.5969569 131.061528,63.6103737 134.903846,62.4909146 L134.903846,61.9230769 L126.756177,61.9230769 C122.094557,61.9262114 118.317307,65.5378959 118.317308,69.9920503 L118.317308,78.5096154 L118.418336,78.5096154 C119.61953,74.6695442 121.769939,71.1619397 124.68806,68.2828589 Z" id="Shape" fill="#DCE6EF" opacity="0.3" style="mix-blend-mode: overlay;"></path>
            <rect id="Rectangle-path" fill="#D2E9FF" x="0" y="9.95192308" width="9.95192308" height="9.95192308" rx="3.01"></rect>
            <rect id="Rectangle-path" fill="#D2E9FF" x="43.125" y="0" width="17.6923077" height="17.6923077" rx="5.83"></rect>
            <path d="M134.849778,61.9230769 L133.08751,61.9230769 L133.08751,59.142271 C133.084192,54.3543468 137.068988,50.463376 142.004584,50.4351575 C144.479286,50.3493252 146.439755,48.3783337 146.439755,45.9761808 C146.439755,43.5740279 144.479286,41.6030364 142.004584,41.5172041 L129.375,41.5172041 L129.375,39.8076923 L142.004584,39.8076923 C145.441252,39.9090307 148.173077,42.6408537 148.173077,45.9761808 C148.173077,49.3115079 145.441252,52.0433309 142.004584,52.1446693 C138.040918,52.1697544 134.843227,55.2971856 134.849778,59.142271 L134.849778,61.9230769 Z" id="Shape" fill="#0081FF"></path>
            <rect id="Rectangle-path" fill="#0081FF" x="3.31730769" y="30.9615385" width="34.2788462" height="34.2788462" rx="3.68"></rect>
            <path d="M30.0487324,43.5327635 C22.728491,51.441235 13.5444132,57.4298263 3.31730769,60.963319 C3.8854028,62.8456124 5.63359909,64.135088 7.61676761,64.1346153 L33.1097609,64.1346153 C34.2996263,64.1346153 35.4407579,63.6663626 36.2821198,62.8328676 C37.1234817,61.9993726 37.5961538,60.8689108 37.5961538,59.6901708 L37.5961538,35.3846154 C35.307361,38.2987643 32.7832425,41.0237866 30.0487324,43.5327635 Z" id="Shape" fill="#0066CF"></path>
            <path d="M12.4312163,53.0769222 C12.2079274,53.0772578 11.9938945,52.9823189 11.8373023,52.8134787 L7.9876599,48.7301051 C7.82939443,48.563449 7.74038462,48.3366822 7.74038462,48.1001316 C7.74038462,47.8635811 7.82939443,47.6368143 7.9876599,47.4701582 L11.8373023,43.3867846 C12.163821,43.0388598 12.694421,43.0375778 13.0224307,43.3839211 C13.3504403,43.7302643 13.351649,44.2930797 13.0251303,44.6410045 L9.78559949,48.0772235 L13.0251303,51.5134425 C13.3482812,51.8612579 13.3482812,52.4198472 13.0251303,52.7676625 C12.876013,52.9534541 12.6609951,53.0654171 12.4312163,53.0769222 Z" id="Shape" fill="#FFFFFF"></path>
            <path d="M26.2730151,43.125 C26.4957153,43.1271716 26.7087761,43.221726 26.8666368,43.3884435 L30.7143849,47.4718174 C30.8725724,47.6384736 30.9615385,47.8652404 30.9615385,48.101791 C30.9615385,48.3383415 30.8725724,48.5651083 30.7143849,48.7317645 L26.8666368,52.8151385 C26.5402788,53.1630632 26.0099399,53.1643453 25.6820917,52.818002 C25.3542435,52.4716587 25.3530354,51.9088432 25.6793934,51.5609184 L28.91733,48.1246991 L25.6793934,44.6884798 C25.5215285,44.5228059 25.4326923,44.2969857 25.4326923,44.0613698 C25.4326923,43.8257539 25.5215285,43.5999337 25.6793934,43.4342597 C25.8292356,43.2495607 26.0436757,43.1378436 26.2730151,43.125 Z" id="Shape" fill="#FFFFFF"></path>
            <path d="M17.5332853,56.3941139 C17.4307087,56.3957713 17.3286121,56.3797879 17.2314707,56.3468645 C16.9929964,56.272863 16.7950642,56.1050203 16.6833789,55.8820934 C16.5716937,55.6591664 16.5559117,55.4004295 16.6396773,55.1656281 L22.5576112,39.2779987 C22.7387746,38.8253636 23.2435288,38.5937632 23.7057304,38.7511979 C24.1679321,38.9086327 24.4254863,39.39989 24.2915659,39.8686169 L18.3736319,55.7503401 C18.2585385,56.1209919 17.9218029,56.3789588 17.5332853,56.3941139 Z" id="Shape" fill="#FFFFFF"></path>
        </g>
    </g>
</svg>