<?xml version="1.0" encoding="UTF-8"?>
<svg width="5529px" height="5222px" viewBox="0 0 5529 5222" version="1.1" xmlns="http://www.w3.org/2000/svg" xmlns:xlink="http://www.w3.org/1999/xlink">
    <!-- Generator: Sketch 51.2 (57519) - http://www.bohemiancoding.com/sketch -->
    <title>Asset 2</title>
    <desc>Created with Sketch.</desc>
    <defs></defs>
    <g id="Finals" stroke="none" stroke-width="1" fill="none" fill-rule="evenodd">
        <g id="Asset-2" transform="translate(0.000000, -2.000000)">
            <path d="M4753.61092,1323.52 C4191.91763,1383.11105 3923.68987,1286.37763 3630.08829,1184.27013 C3336.48671,1082.16263 3253.49461,756.588684 2809.48684,443.803684 C2543.29987,256.187105 1715.1475,-28.5710526 1265.28947,1209.09974 C1094.81553,1678.07316 738.493684,1701.33816 323.601184,2090.72079 C-91.2913158,2480.10342 -220.609342,3086.28592 631.964474,3488.79763 C1483.44987,3891.10526 1583.99276,4955.03684 2296.02421,4795.85526 C3350.77224,4559.66789 3581.72158,4513.00184 4141.85026,5027.62092 C4586.06211,5435.30263 5373.125,5078.86719 5373.125,5078.86719 C5671.28434,4785.74179 5476.88273,3841.71875 5314.25781,3344.80469 C5151.63289,2847.89062 5079.63505,2419.59538 5314.25781,2143.47656 C5548.88058,1867.35775 5354.14724,1446.3075 4753.61092,1323.52 Z" id="Shape" fill="#DCE6EF" fill-rule="nonzero" opacity="0.5"></path>
            <path d="M3901.58132,2599.82974 C4083.0274,2501.35155 4176.47655,2293.91509 4130.01197,2092.76422 C4083.54738,1891.61334 3908.58702,1746.17779 3702.33224,1737.25605 C3702.33224,1737.25605 3657.43487,1741.40566 3636.14263,1735.41934 C3606.48316,1727.05211 3559.27289,1702.90276 3502.675,1728.61671 C3467.57342,1744.46684 3433.08408,1770.38487 3428.45829,1779.56842 C3424.07645,1787.76528 3424.81837,1797.75473 3430.36303,1805.21434 C3435.39697,1809.77211 3449.95461,1814.73803 3457.57355,1809.02382 C3465.1925,1803.30961 3500.09,1773.24197 3524.17132,1773.24197 C3548.25263,1773.24197 3545.73566,1783.92211 3570.56526,1807.25513 C3597.43566,1832.28882 3601.92539,1831.88066 3710.63145,1839.56763 C3865.14785,1851.50289 3994.40892,1961.56986 4030.81766,2112.20908 C4067.2264,2262.84829 4002.50249,2419.80045 3870.49329,2500.9875" id="Shape" fill="#FE9580" fill-rule="nonzero"></path>
            <path d="M3945.05013,2439.08355 C3922.99641,2462.92284 3897.82627,2483.67677 3870.22118,2500.78342 L3901.64934,2599.82974 C3940.09617,2578.89794 3975.36972,2552.60311 4006.40987,2521.73553 C3977.71784,2501.38015 3956.23184,2472.43836 3945.05013,2439.08355 Z" id="Shape" fill="#000000" fill-rule="nonzero" opacity="0.1" style="mix-blend-mode: multiply;"></path>
            <path d="M3707.43421,4656.06118 C3710.15526,4675.92487 3707.43421,4722.52289 3707.43421,4737.69276 C3707.43421,4775.03921 3665.05382,4810.685 3629.40803,4788.57645 C3597.50368,4768.84882 3481.45079,4702.18303 3464.64829,4687.55737 C3438.39013,4664.6325 3412.06395,4624.76908 3429.13855,4591.64026 C3444.17237,4562.525 3493.55947,4557.62711 3524.37539,4570.41605 C3555.19132,4583.205 3707.43421,4656.06118 3707.43421,4656.06118 Z" id="Shape" fill="#2B2579" fill-rule="nonzero"></path>
            <path d="M3353.69737,4669.19026 C3356.48645,4689.05395 3353.69737,4735.65197 3353.69737,4750.82184 C3353.69737,4788.16829 3323.28961,4825.10658 3275.67118,4801.77355 C3241.99816,4785.24316 3127.71395,4715.31211 3110.97947,4700.68645 C3084.65329,4677.76158 3070.16368,4643.40829 3087.23829,4610.27947 C3102.27211,4581.23224 3143.29197,4579.73566 3173.83579,4592.45658 C3204.37961,4605.1775 3353.69737,4669.19026 3353.69737,4669.19026 Z" id="Shape" fill="#2B2579" fill-rule="nonzero"></path>
            <path d="M3613.35382,2913.02289 L3613.35382,3275.94329 C3613.4403,3286.62371 3609.28043,3296.90104 3601.78934,3304.51434 C3579.00053,3327.43921 3515.94013,3369.00329 3357.71092,3369.00329 C3191.04645,3369.00329 3124.72079,3311.72513 3102.61224,3284.51461 C3096.46437,3276.98151 3093.20775,3267.50111 3093.42868,3257.78026 L3100.84355,2842.41158 C3113.09294,2862.02113 3126.54243,2880.85496 3141.11513,2898.80539 C3199.41368,2973.22618 3333.62961,2995.74289 3421.85974,2954.92711 C3500.22605,2918.66908 3549.00092,2897.51289 3613.35382,2913.02289 Z" id="Shape" fill="#8682C1" fill-rule="nonzero"></path>
            <path d="M3597.09553,3308.93605 C3596.14316,3332.67724 3595.39487,3356.01026 3594.71461,3379.00316 C3567.02789,3402.54026 3501.85868,3437.02961 3357.71092,3437.02961 C3200.43408,3437.02961 3132.54382,3386.00987 3106.82987,3357.43882 C3110.23118,3317.16724 3113.6325,3296.21513 3113.6325,3296.21513 C3143.56408,3325.39842 3212.61079,3368.93526 3357.915,3368.93526 C3506.21237,3369.00329 3570.83737,3332.40513 3597.09553,3308.93605 Z" id="Shape" fill="#000000" fill-rule="nonzero" opacity="0.1" style="mix-blend-mode: multiply;"></path>
            <path d="M3707.43421,4656.06118 C3711.71987,4650.95921 3559.68105,4275.99816 3597.36763,3309.14013 C3571.10947,3332.60921 3506.48447,3369.20737 3357.98303,3369.20737 C3212.67882,3369.20737 3143.63211,3325.67053 3113.70053,3296.48724 C3113.70053,3296.48724 3036.49066,3799.20171 3240.56961,4622.32013 C3240.56961,4622.32013 3276.01132,4698.37355 3353.62934,4671.63921 C3359.41158,4669.66645 3229.34526,4349.39855 3237.98461,3546.14382 C3286.38362,3565.29602 3337.97278,3575.10604 3390.02342,3575.055 C3411.16227,3575.08454 3432.27052,3573.44683 3453.15184,3570.15711 C3454.92053,3798.6575 3482.06303,4154.43513 3594.30645,4606.94618 C3594.30645,4606.94618 3640.9725,4678.03368 3707.36618,4656.26526" id="Shape" fill="#FF4D21" fill-rule="nonzero"></path>
            <path d="M3452.94776,3569.95303 L3452.94776,3574.51079 C3447.77776,3574.51079 3442.60776,3574.51079 3437.43776,3574.51079 C3429.54671,3574.51079 3421.72368,3574.51079 3413.96868,3573.83053 C3427.16579,3573.35434 3440.15882,3571.99382 3452.94776,3569.95303 Z" id="Shape" fill="#FFFFFF" fill-rule="nonzero" opacity="0.5" style="mix-blend-mode: overlay;"></path>
            <path d="M3113.42842,3296.28316 C3119.28188,3301.96013 3125.53355,3307.21153 3132.13566,3311.99724 C3125.33303,3308.52789 3118.53039,3305.19461 3112.74816,3301.38513 C3113.15632,3297.98382 3113.42842,3296.28316 3113.42842,3296.28316 Z" id="Shape" fill="#000000" fill-rule="nonzero" opacity="0.1" style="mix-blend-mode: multiply;"></path>
            <path d="M3597.09553,3308.93605 C3596.14316,3332.67724 3595.39487,3356.01026 3594.71461,3379.00316 C3567.02789,3402.54026 3501.85868,3423.42434 3357.71092,3423.42434 C3200.43408,3423.42434 3132.54382,3338.39145 3106.82987,3309.82039 C3110.23118,3269.54882 3113.6325,3296.21513 3113.6325,3296.21513 C3143.56408,3325.39842 3212.61079,3368.93526 3357.915,3368.93526 C3506.21237,3369.00329 3570.83737,3332.40513 3597.09553,3308.93605 Z" id="Shape" fill="#000000" fill-rule="nonzero" opacity="0.2" style="mix-blend-mode: multiply;"></path>
            <path d="M3158.66592,3376.07803 C3151.86329,3383.42487 3101.52382,3444.10434 3101.52382,3444.10434 C3101.52382,3445.32882 3101.52382,3446.55329 3101.52382,3447.77776 C3101.52382,3449.00224 3101.52382,3448.93421 3101.52382,3449.54645 L3101.11566,3460.36263 C3100.77553,3468.93395 3100.50342,3477.77737 3100.29934,3486.96092 C3099.34697,3523.69513 3099.00684,3565.46329 3099.75513,3612.06132 L3099.34697,3612.06132 C3055.06184,3584.17053 3029.55197,3457.91368 3015.87868,3445.32882 C2879.8128,3343.21271 2802.89789,3180.53413 2810.32531,3010.57396 C2817.75274,2840.61379 2908.56575,2685.26508 3053.02105,2595.40803 C3052.06868,2606.02013 3051.52447,2617.04039 3051.52447,2628.67289 C3051.30004,2659.01447 3053.39226,2689.32891 3057.78289,2719.35197 C2960.28506,2802.44436 2906.95601,2926.13997 2913.47277,3054.0763 C2919.98952,3182.01263 2985.61143,3299.64918 3091.04776,3372.40461 C3109.27882,3379.20724 3126.28539,3355.53408 3131.31934,3350.50013 C3136.35329,3345.46618 3152.81566,3321.65697 3166.76105,3333.15342 C3180.70645,3344.64987 3165.67263,3368.73118 3158.66592,3376.07803 Z" id="Shape" fill="#FE9580" fill-rule="nonzero"></path>
            <path d="M3057.51079,2718.80776 C3043.30185,2730.9194 3029.93754,2743.98824 3017.51132,2757.92289 C3012.61015,2726.23767 3010.33486,2694.20171 3010.70868,2662.14184 C3010.70868,2648.53658 3011.25289,2635.4075 3012.27329,2623.09474 C3025.33434,2613.02684 3038.93961,2603.61654 3053.08908,2594.86382 C3052.13671,2605.47592 3051.5925,2616.49618 3051.5925,2628.12868 C3051.25544,2658.46159 3053.23395,2688.77599 3057.51079,2718.80776 Z" id="Shape" fill="#000000" fill-rule="nonzero" opacity="0.1" style="mix-blend-mode: multiply;"></path>
            <g id="Livello_110" opacity="0.25" transform="translate(1401.342105, 346.934211)" fill="#64B3FF" fill-rule="nonzero">
                <path d="M481.014079,239.520658 C481.232315,134.87812 412.83624,42.4620736 312.697267,12.0927763 C212.558293,-18.2765209 104.350779,20.5806901 46.4079547,107.717005 C-11.5348701,194.85332 -5.51445101,309.668403 61.2236842,390.266974 L243.874342,652.644474 L429.246053,386.4575 C435.912767,378.153088 442.003984,369.402645 447.477105,360.267368 L449.381842,357.546316 C470.255268,321.719794 481.219804,280.984313 481.150132,239.520658" id="Shape"></path>
            </g>
            <g id="Livello_110-2" opacity="0.25" transform="translate(3292.473684, 346.934211)" fill="#64B3FF" fill-rule="nonzero">
                <path d="M337.614605,170.065789 C337.614605,77.5311337 262.600445,2.51697368 170.065789,2.51697368 C77.5311337,2.51697368 2.51697368,77.5311337 2.51697368,170.065789 C2.44273446,209.018933 16.1269774,246.74697 41.1559211,276.595 L170.405921,461.966711 L301.1525,274.146053 C305.8899,268.265586 310.208839,262.059952 314.0775,255.574868 L315.37,253.738158 C330.080762,228.316435 337.758548,199.436689 337.614605,170.065789" id="Shape"></path>
            </g>
            <g id="Livello_110-3" opacity="0.25" transform="translate(3074.789474, 952.368421)" fill="#64B3FF" fill-rule="nonzero">
                <path d="M229.860921,114.760395 C230.028225,65.1886463 197.656871,21.3774195 150.222291,6.97787601 C102.787711,-7.42166744 51.5242842,11.0008522 24.1061865,52.300176 C-3.31191117,93.5994998 -0.390993014,147.99432 31.2921053,186.12 L117.685526,310.268026 L205.439474,184.283289 C208.572424,180.338922 211.457742,176.204056 214.078816,171.9025 L214.963158,170.61 C224.814891,153.64623 230.001756,134.37738 229.996974,114.760395" id="Shape"></path>
            </g>
            <g id="Livello_110-4" opacity="0.25" transform="translate(2238.065789, 0.000000)" fill="#64B3FF" fill-rule="nonzero">
                <path d="M169.113421,84.0125 C167.816535,38.339831 130.417854,1.9880202 84.7267763,1.9880202 C39.0356983,1.9880202 1.63701747,38.339831 0.340131579,84.0125 C0.303400602,103.636112 7.19315898,122.643172 19.7956579,137.685263 L84.7607895,231.289474 L150.746316,136.052632 C153.138351,133.094014 155.29891,129.955518 157.208816,126.665 L157.889079,125.712632 C165.2938,112.964643 169.190026,98.4828852 169.181447,83.7403947" id="Shape"></path>
            </g>
            <g id="Livello_110-5" opacity="0.25" transform="translate(1945.552632, 1258.486842)" fill="#64B3FF" fill-rule="nonzero">
                <path d="M195.031447,100.610921 C195.136808,57.8234283 167.176849,20.0276322 126.231328,7.6080934 C85.2858068,-4.81144536 41.0405479,11.0831639 17.3585269,46.7194168 C-6.32349404,82.3556697 -3.84020204,129.303671 23.4690789,162.242763 L98.2980263,269.452237 L174.011316,160.610132 C176.758408,157.210196 179.259072,153.618333 181.494211,149.861974 L182.2425,148.773553 C190.772236,134.132634 195.256384,117.487287 195.235526,100.542895" id="Shape"></path>
            </g>
            <g id="Livello_110-6" opacity="0.25" transform="translate(585.026316, 462.578947)" fill="#64B3FF" fill-rule="nonzero">
                <path d="M258.5,129.726184 C258.734705,72.9107178 221.66877,22.6701936 167.313924,6.12924324 C112.959078,-10.4117071 54.1903101,10.6649579 22.7366124,57.9800423 C-8.71708542,105.295127 -5.40530134,167.641145 30.8839474,211.357763 L129.998289,353.736842 L230.473158,209.385 C234.082028,204.861325 237.399347,200.112561 240.405,195.1675 L241.425395,193.670921 C252.671367,174.240923 258.56318,152.175967 258.5,129.726184" id="Shape"></path>
            </g>
            <g id="Livello_110-7" opacity="0.25" transform="translate(217.684211, 1435.355263)" fill="#64B3FF" fill-rule="nonzero">
                <path d="M535.163026,268.976053 C535.54244,151.400847 458.757644,47.4962598 346.251634,13.3426294 C233.745623,-20.811001 112.157098,22.8730784 47.1109349,120.817295 C-17.9352282,218.761511 -11.0376727,347.775045 64.0807895,438.225526 L269.112105,732.711447 L477.204605,433.871842 C484.672765,424.555388 491.491478,414.736441 497.6125,404.484474 L499.721316,401.491316 C523.132841,361.254111 535.456218,315.528515 535.435132,268.976053" id="Shape"></path>
            </g>
            <g id="Group" opacity="0.3" style="mix-blend-mode: multiply;" transform="translate(1523.789474, 2829.894737)" stroke="#000000" stroke-width="20">
                <path d="M1511.81684,1755.07895 C1511.81684,1755.07895 1507.93934,1745.89539 1500.04829,1730.58947" id="Shape"></path>
                <path d="M1434.19882,1624.6725 C1368.82553,1536.23829 1262.16026,1432.36211 1113.93092,1414.67526 C848.084079,1382.90697 362.784342,1396.51224 172.310658,1228.75934 C-18.1630263,1061.00645 -54.6251316,806.588026 85.7131579,630.127763 C180.201711,511.285789 233.670395,300.676316 106.597237,145.168158 C87.9580263,122.447368 70.8153947,99.9306579 54.9652632,77.7540789" id="Shape" stroke-dasharray="81.59999847412109"></path>
                <path d="M19.9997368,25.9180263 C15.1018421,18.1630263 10.34,10.4760526 5.71421053,2.78907895" id="Shape"></path>
            </g>
            <g id="Group" opacity="0.3" style="mix-blend-mode: multiply;" transform="translate(2496.565789, 1986.368421)" stroke="#000000" stroke-width="20">
                <path d="M539.040526,2197.25 C539.040526,2197.25 538.088158,2187.52224 535.435132,2170.03947" id="Shape"></path>
                <path d="M510.197368,2051.40158 C480.537895,1942.55947 422.715526,1792.49342 313.261184,1675.42013 C118.161711,1466.85145 -84.4886842,1194.74618 43.3327632,945.293684 C208.636711,622.712895 408.43,472.646842 199.793289,222.582105 C166.91294,183.047248 140.550249,138.52002 121.699079,90.6790789" id="Shape" stroke-dasharray="79.29999828338623"></path>
                <path d="M102.039474,33.0607895 C99.6585526,24.2173684 97.4817105,15.4419737 95.2368421,6.59855263" id="Shape"></path>
            </g>
            <g id="Group" opacity="0.3" style="mix-blend-mode: multiply;" transform="translate(3761.855263, 1734.671053)" stroke="#000000" stroke-width="20">
                <path d="M222.650132,1.97276316 C222.650132,1.97276316 232.513947,3.74144737 249.248421,7.55092105" id="Shape"></path>
                <path d="M368.158421,41.9722368 C477.000526,80.6111842 611.964737,150.134079 639.447368,262.785658 C687.065789,457.749079 519.244868,800.193553 639.447368,1026.92526 C759.649868,1253.65697 723.323816,1539.3675 480.741974,1752.56197 C256.255132,1949.83829 45.3735526,2086.70724 6.12236842,2434.59382" id="Shape" stroke-dasharray="80.90000152587891"></path>
                <path d="M1.08842105,2496.56579 C0.612236842,2505.54526 0.272105263,2514.59276 0,2523.77632" id="Shape"></path>
            </g>
            <path d="M3093.42868,1805.48645 C3032.205,1871.40395 3011.79711,2007.66066 3060.02776,2077.59171 C3109.21079,2149.49553 3119.89092,2238.88211 3119.55079,2272.89526 C3117.98618,2424.79803 3051.52447,2476.08987 3051.52447,2627.78855 C3051.52447,2779.48724 3093.90487,2837.92184 3141.38724,2898.46526 C3199.68579,2972.88605 3333.90171,2995.47079 3422.13184,2954.58697 C3510.36197,2913.70316 3561.10961,2892.13882 3638.72763,2920.57382 C3717.84224,2949.34895 3824.77961,2948.39658 3882.26184,2806.08553 C3953.62145,2629.62526 3872.80618,2518.94645 3851.65,2455.40987 C3830.49382,2391.87329 3752.80776,2217.31776 3736.75355,2150.10776 C3720.69934,2082.89776 3719.40684,1925.62092 3642.40105,1855.14566 C3610.76882,1826.37053 3549.13697,1826.23447 3524.98763,1826.16645 C3468.04961,1826.16645 3396.69,1800.24842 3323.56171,1760.72513 C3278.86842,1736.64382 3155.06053,1739.16079 3093.42868,1805.48645 Z" id="Shape" fill="#362F97" fill-rule="nonzero"></path>
            <path d="M3881.98974,2806.15355 C3872.09405,2831.97787 3858.15614,2856.06497 3840.69776,2877.51316 C3845.95239,2867.71635 3850.65358,2857.63263 3854.77921,2847.30947 C3926.13882,2670.84921 3845.32355,2560.17039 3824.16737,2496.63382 C3803.01118,2433.09724 3725.32513,2258.54171 3709.27092,2191.26368 C3693.21671,2123.98566 3691.85618,1966.77684 3614.85039,1896.36961 C3583.28618,1867.59447 3521.58632,1867.45842 3497.43697,1867.39039 C3440.56697,1867.39039 3369.13934,1841.47237 3296.07908,1801.94908 C3251.31776,1777.79974 3127.78197,1780.31671 3066.21816,1846.64237 L3063.29303,1849.83961 C3071.25635,1833.84664 3081.39808,1819.03468 3093.42868,1805.82658 C3154.9925,1739.50092 3278.52829,1736.98395 3323.28961,1761.13329 C3396.34987,1800.65658 3467.7775,1826.37053 3524.6475,1826.57461 C3548.79684,1826.57461 3610.49671,1826.57461 3642.06092,1855.55382 C3719.06671,1925.75697 3720.42724,2083.37395 3736.48145,2150.44789 C3752.53566,2217.52184 3830.22171,2392.28145 3851.37789,2455.81803 C3872.53408,2519.35461 3953.34934,2629.69329 3881.98974,2806.15355 Z" id="Shape" fill="#FFFFFF" fill-rule="nonzero" opacity="0.5" style="mix-blend-mode: overlay;"></path>
            <path d="M3060.02776,2077.93184 C3024.51803,2025.95974 3026.01461,1937.86566 3054.51763,1868.81895 C3051.25237,1914.12447 3059.14342,1958.34158 3080.43566,1989.49763 C3129.55066,2061.40145 3140.29882,2150.78803 3139.95868,2184.80118 C3139.45508,2234.34177 3131.23881,2283.50169 3115.60526,2330.51355 C3118.08243,2311.51868 3119.40005,2292.39052 3119.55079,2273.23539 C3119.89092,2239.22224 3109.14276,2149.63158 3060.02776,2077.93184 Z" id="Shape" fill="#000000" fill-rule="nonzero" opacity="0.3" style="mix-blend-mode: multiply;"></path>
            <path d="M3909.06421,2700.10053 C3905.15644,2736.57888 3895.99132,2772.29992 3881.85368,2806.15355 C3824.37145,2948.46461 3717.43408,2949.41697 3638.31947,2920.64184 C3560.70145,2892.41092 3509.95382,2913.83921 3421.72368,2954.655 C3333.49355,2995.47079 3199.27763,2972.95408 3140.97908,2898.53329 C3093.36066,2837.98987 3051.11632,2779.55526 3051.11632,2627.85658 C3051.10465,2577.21105 3059.30624,2526.89879 3075.40171,2478.87895 C3072.77142,2498.9521 3071.47607,2519.17768 3071.52421,2539.42237 C3071.52421,2691.12105 3113.90461,2749.55566 3161.38697,2810.09908 C3219.68553,2884.51987 3353.90145,2907.03658 3442.13158,2866.22079 C3530.36171,2825.405 3581.10934,2803.70461 3658.72737,2832.20763 C3737.84197,2860.98276 3844.77934,2860.03039 3902.26158,2717.71934 C3904.71053,2711.80105 3907.02342,2705.88276 3909.06421,2700.10053 Z" id="Shape" fill="#000000" fill-rule="nonzero" opacity="0.3" style="mix-blend-mode: multiply;"></path>
            <path d="M3115.60526,2330.51355 C3107.85026,2388.88013 3090.3675,2432.07684 3075.53776,2479.15105 C3083.15671,2421.12461 3100.7075,2377.99592 3115.60526,2330.51355 Z" id="Shape" fill="#000000" fill-rule="nonzero" opacity="0.1" style="mix-blend-mode: multiply;"></path>
            <path d="M3057.51079,2718.80776 C3043.30185,2730.9194 3029.93754,2743.98824 3017.51132,2757.92289 C3012.61015,2726.23767 3010.33486,2694.20171 3010.70868,2662.14184 C3010.70868,2648.53658 3011.25289,2635.4075 3012.27329,2623.09474 C3025.33434,2613.02684 3038.93961,2603.61654 3053.08908,2594.86382 C3052.13671,2605.47592 3051.5925,2616.49618 3051.5925,2628.12868 C3051.25544,2658.46159 3053.23395,2688.77599 3057.51079,2718.80776 Z" id="Shape" fill="#000000" fill-rule="nonzero" opacity="0.1" style="mix-blend-mode: multiply;"></path>
            <path d="M3613.35382,2913.02289 L3613.35382,3033.97368 C3549.00092,3018.46368 3500.22605,3039.61987 3421.85974,3075.87789 C3333.42553,3116.69368 3199.41368,3032.95329 3141.11513,2958.5325 C3125.66946,2939.54532 3111.51106,2919.5463 3098.73474,2898.66934 L3100.84355,2842.75171 C3113.09294,2862.36126 3126.54243,2881.19509 3141.11513,2899.14553 C3199.41368,2973.56632 3333.62961,2996.08303 3421.85974,2955.26724 C3500.22605,2918.66908 3549.00092,2897.51289 3613.35382,2913.02289 Z" id="Shape" fill="#000000" fill-rule="nonzero" opacity="0.15" style="mix-blend-mode: multiply;"></path>
            <g id="Livello_110-8" opacity="0.25" transform="translate(1993.171053, 2360.513158)" fill="#64B3FF" fill-rule="nonzero">
                <path d="M478.020921,236.459474 C475.829304,107.075171 370.318061,3.33602689 240.915197,3.33602689 C111.512334,3.33602689 6.00109049,107.075171 3.80947368,236.459474 C3.65247157,291.54546 22.92238,344.923106 58.2305263,387.205789 L240.881184,649.583289 L426.184868,383.396316 C432.851583,375.091904 438.9428,366.341461 444.415921,357.206184 L446.320658,354.553158 C467.187485,318.699095 478.151083,277.94362 478.088947,236.459474" id="Shape"></path>
            </g>
            <g id="Livello_110-9" opacity="0.25" transform="translate(4584.973684, 2020.381579)" fill="#64B3FF" fill-rule="nonzero">
                <path d="M336.186053,169.249474 C336.186053,76.7148179 261.171893,1.70065789 168.637237,1.70065789 C76.102581,1.70065789 1.08842105,76.7148179 1.08842105,169.249474 C1.01418183,208.202618 14.6984248,245.930654 39.7273684,275.778684 L168.977368,461.150395 L299.928026,273.125658 C304.649898,267.233571 308.968075,261.029033 312.853026,254.554474 L314.145526,252.649737 C328.902302,227.336621 336.650775,198.549868 336.594211,169.249474" id="Shape"></path>
            </g>
            <g id="Livello_110-10" opacity="0.25" transform="translate(4088.381579, 2891.118421)" fill="#64B3FF" fill-rule="nonzero">
                <path d="M175.507895,87.4818421 C175.497548,50.2956056 151.156225,17.4954696 115.567815,6.71208432 C79.9794054,-4.07130098 41.5262253,9.70192899 20.8775354,40.6284208 C0.22884543,71.5549127 2.24813484,112.350395 25.85,141.086579 L90.8831579,234.486711 L156.868684,139.726053 C159.215195,136.757401 161.373582,133.64478 163.331184,130.406447 L164.011447,129.454079 C171.461206,116.721626 175.382602,102.233593 175.371842,87.4818421" id="Shape"></path>
            </g>
            <g id="Livello_110-11" opacity="0.25" transform="translate(911.552632, 2768.671053)" fill="#64B3FF" fill-rule="nonzero">
                <path d="M174.895658,90.6790789 C174.85533,53.5012621 150.498365,20.7260895 114.912206,9.96426078 C79.3260467,-0.797567912 40.8885041,12.9875326 20.2527729,43.9125757 C-0.382958369,74.8376188 1.6412538,115.622129 25.2377632,144.351842 L90.2709211,237.683947 L156.460526,142.855263 C158.945538,139.88955 161.2187,136.752586 163.263158,133.467632 L163.943421,132.515263 C171.378571,119.779964 175.277057,105.289809 175.235789,90.5430263" id="Shape"></path>
            </g>
            <path d="M2925.13158,994.000526 C2922.71729,837.159819 2794.8858,711.280933 2638.02651,711.280933 C2481.16723,711.280933 2353.33574,837.159819 2350.92145,994.000526 C2350.84251,1060.71939 2374.30551,1125.32695 2417.17908,1176.44711 L2638.26461,1494.06197 L2862.75145,1171.82132 C2870.66097,1161.76375 2877.86624,1151.17178 2884.31579,1140.12105 L2886.56066,1136.85579 C2911.83559,1093.49082 2925.14585,1044.19358 2925.13158,994.000526 Z" id="Shape" fill="#0081FF" fill-rule="nonzero"></path>
            <g id="Group" opacity="0.3" transform="translate(2346.907895, 707.473684)" fill="#FFFFFF" fill-rule="nonzero">
                <path d="M32.2444737,343.805 C28.9111842,269.724342 67.8222368,185.031579 119.386184,133.399605 C175.787888,78.4587762 251.12822,47.2658333 329.859605,46.2578947 C402.298526,45.9354346 472.18253,73.0045516 525.503289,122.039211 C453.355014,20.1671786 323.686103,-23.4679561 204.627805,14.0607839 C85.569507,51.5895239 4.36188185,161.695714 3.67342105,286.526842 C3.53796547,344.597491 21.2536537,401.306691 54.4210526,448.973684 C41.3098457,415.371308 33.8175551,379.840384 32.2444737,343.805 Z" id="Shape"></path>
            </g>
            <g id="Group" opacity="0.1" style="mix-blend-mode: multiply;" transform="translate(2448.947368, 870.736842)" fill="#000000" fill-rule="nonzero">
                <path d="M476.184211,123.263684 C476.233105,82.2787696 467.366097,41.7737205 450.198158,4.55776316 C451.898816,16.3263158 453.055263,28.2989474 453.599474,40.4076316 C457.340921,124.488158 413.327895,220.473289 354.757237,278.975921 C290.729063,341.445782 205.093847,376.84492 115.644737,377.818158 C77.7913086,377.890287 40.2098601,371.423424 4.55776316,358.702763 L188.773026,623.325132 L413.259868,301.084474 C421.356329,291.043751 428.743717,280.451373 435.368421,269.384211 L437.613289,266.118947 C462.888225,222.753982 476.198481,173.456736 476.184211,123.263684 Z" id="Shape"></path>
            </g>
            <path d="M1778.68408,1831.81263 C1779.26291,1678.91929 1679.45536,1543.75979 1533.16047,1499.32427 C1386.86558,1454.88875 1228.74714,1511.70598 1144.1938,1639.09296 C1059.64046,1766.47994 1068.68668,1934.25301 1166.44724,2051.80974 L1432.97434,2434.66184 L1703.44697,2046.23158 C1713.21658,2034.10172 1722.12703,2021.30431 1730.11329,2007.93276 L1732.83434,2004.05526 L1732.42618,2004.05526 C1762.81825,1951.74709 1778.78108,1892.30902 1778.68408,1831.81263 Z" id="Shape" fill="#004C9B" fill-rule="nonzero"></path>
            <g id="Group" opacity="0.2" transform="translate(1081.618421, 1482.973684)" fill="#FFFFFF" fill-rule="nonzero">
                <path d="M23.3330299,449.673389 C18.9113194,350.967205 70.951451,238.2476 138.977767,169.541021 C214.030522,96.3924513 314.31557,54.8708372 419.110135,53.5561522 C473.424124,53.5765588 527.110133,65.1718092 576.591056,87.5693101 C474.900035,-2.87677434 329.668443,-25.3943694 205.363575,30.0119294 C81.0587083,85.4182281 0.716384063,208.480686 3.62765056e-06,344.572731 C-0.00633940327,388.147863 8.30557651,431.323648 24.4894773,471.781942 C24.217372,464.503126 23.6731615,457.088257 23.3330299,449.673389 Z" id="Shape"></path>
            </g>
            <g id="Group" opacity="0.2" style="mix-blend-mode: multiply;" transform="translate(1204.065789, 1727.868421)" fill="#000000" fill-rule="nonzero">
                <path d="M574.618289,103.944211 C574.646987,69.351996 569.464181,34.9528386 559.244342,1.90473684 C559.720526,102.923816 506.796053,215.643421 437.137105,285.370395 C358.32715,362.315488 252.987831,406.072944 142.855263,407.613684 C95.1692121,407.606104 47.8699128,399.058593 3.19723684,382.375921 L229.044605,706.793421 L499.517237,318.363158 C509.286838,306.233299 518.197292,293.435888 526.183553,280.064342 L528.904605,276.186842 L528.496447,276.186842 C558.840952,223.865375 574.75661,164.42814 574.618289,103.944211 Z" id="Shape"></path>
            </g>
            <path d="M1432.56618,1643.92395 C1321.13908,1643.92395 1239.64355,1729.50105 1238.82724,1837.66289 C1238.82724,1944.66196 1325.56712,2031.40184 1432.56618,2031.40184 C1539.56525,2031.40184 1626.30513,1944.66196 1626.30513,1837.66289 C1626.30513,1730.66383 1539.56525,1643.92395 1432.56618,1643.92395 Z M1258.48684,1837.66289 C1258.84255,1813.7367 1264.04958,1790.13148 1273.79276,1768.27605 L1356.17263,1993.51118 C1296.72843,1964.24841 1258.9133,1903.91801 1258.48684,1837.66289 Z M1383.58724,2004.80355 L1435.28724,1853.85316 L1489.77632,2001.53829 C1447.12382,2016.09592 1421.27382,2013.57895 1383.31513,2004.80355 L1383.58724,2004.80355 Z M1455.76316,1755.07895 L1475.15066,1753.44632 C1477.88735,1753.50766 1480.42707,1752.0284 1481.72392,1749.61771 C1483.02077,1747.20702 1482.85545,1744.27256 1481.29604,1742.02278 C1479.73662,1739.77301 1477.04683,1738.58837 1474.33434,1738.95671 C1443.42815,1741.33753 1412.38461,1741.33753 1381.47842,1738.95671 C1378.07439,1739.32443 1375.33373,1741.91769 1374.77858,1745.29622 C1374.22342,1748.67474 1375.99013,1752.00865 1379.0975,1753.44632 L1399.50539,1755.07895 L1426.71592,1829.90789 L1388.75724,1944.53224 L1325.76487,1755.62316 L1346.785,1753.99053 C1349.40965,1752.52386 1351.03579,1749.75236 1351.03579,1746.74572 C1351.03579,1743.73909 1349.40965,1740.96758 1346.785,1739.50092 L1287.05789,1741.06553 C1314.73684,1698.77877 1359.49974,1670.68536 1409.61518,1664.148 C1459.73061,1657.61063 1510.20234,1673.28105 1547.80276,1707.05237 C1522.76908,1707.86868 1509.02776,1732.08605 1521.95276,1757.11974 C1538.075,1789.36421 1550.18368,1794.26211 1548.61908,1838.75132 L1518.75553,1940.45066 L1455.76316,1755.07895 Z M1520.32013,1986.77658 L1576.85,1824.53382 C1584.39576,1802.48397 1587.42642,1779.14095 1585.76145,1755.89526 C1587.39408,1760.72513 1606.71355,1794.67026 1606.16934,1837.52684 L1606.98566,1837.52684 C1605.42105,1880.45145 1591.81579,1944.26013 1520.52421,1987.04868 L1520.32013,1986.77658 Z" id="Shape" fill="#FFFFFF" fill-rule="nonzero"></path>
            <path d="M4221.64513,1062.91118 C4221.97185,958.199383 4153.58199,865.668296 4053.38382,835.254591 C3953.18564,804.840887 3844.90057,843.744861 3786.9673,930.971029 C3729.03404,1018.1972 3735.16799,1133.0952 3802.05882,1213.6575 L3984.70947,1476.17105 L4170.01316,1209.78 C4176.71753,1201.48842 4182.83222,1192.73691 4188.31224,1183.58987 L4190.14895,1180.93684 C4210.88179,1145.06485 4221.74863,1104.34354 4221.64513,1062.91118 Z" id="Shape" fill="#64B3FF" fill-rule="nonzero"></path>
            <path d="M3773.80871,1100.39468 C3767.89042,967.539284 3891.15411,854.411521 4019.79187,854.411521 C4071.50757,854.209009 4121.86934,870.932556 4163.19134,902.029942 C4078.72939,804.176901 3931.37781,792.195455 3832.21665,875.11774 C3733.0555,958.040024 3718.77254,1105.18634 3800.1349,1205.63139 C3784.35694,1172.68517 3775.40219,1136.88931 3773.80871,1100.39468 Z" id="Shape" fill="#FFFFFF" fill-rule="nonzero" opacity="0.3"></path>
            <path d="M4221.64513,1062.91118 C4221.6998,1031.38331 4215.38299,1000.16949 4203.07395,971.143684 C4203.3914,975.678772 4203.66351,980.21386 4203.89026,984.748947 C4207.42763,1062.70711 4166.54382,1151.75355 4112.25882,1206.03855 C4052.97737,1263.73172 3973.81972,1296.48073 3891.10526,1297.53395 C3880.53997,1297.53989 3869.98156,1296.99494 3859.47303,1295.90132 L3984.70947,1476.17105 L4170.01316,1209.78 C4176.71753,1201.48842 4182.83222,1192.73691 4188.31224,1183.58987 L4190.14895,1180.93684 C4210.88179,1145.06485 4221.74863,1104.34354 4221.64513,1062.91118 Z" id="Shape" fill="#000000" fill-rule="nonzero" opacity="0.1" style="mix-blend-mode: multiply;"></path>
            <path d="M3916.275,1114.81526 C3913.73824,1114.90911 3911.27578,1113.94875 3909.47237,1112.16224 L3867.77224,1070.46211 C3864.23523,1066.90623 3864.23523,1061.161 3867.77224,1057.60513 L3909.47237,1015.905 C3913.08714,1012.78285 3918.49898,1012.98045 3921.87643,1016.35791 C3925.25389,1019.73536 3925.45149,1025.1472 3922.32934,1028.76197 L3887.02368,1063.99961 L3922.32934,1099.30526 C3925.86635,1102.86114 3925.86635,1108.60636 3922.32934,1112.16224 C3920.71807,1113.77853 3918.5555,1114.72618 3916.275,1114.81526 Z" id="Shape" fill="#FFFFFF" fill-rule="nonzero"></path>
            <path d="M4052.80382,1013.59211 C4055.20274,1013.59374 4057.50281,1014.54802 4059.19829,1016.24513 L4100.89842,1057.94526 C4104.43543,1061.50114 4104.43543,1067.24636 4100.89842,1070.80224 L4059.19829,1112.50237 C4055.58352,1115.62452 4050.17168,1115.42692 4046.79422,1112.04946 C4043.41677,1108.67201 4043.21917,1103.26017 4046.34132,1099.64539 L4081.64697,1064.33974 L4046.34132,1029.10211 C4043.76848,1026.4883 4043.01272,1022.5871 4044.42335,1019.2016 C4045.83397,1015.8161 4049.13621,1013.60573 4052.80382,1013.59211 Z" id="Shape" fill="#FFFFFF" fill-rule="nonzero"></path>
            <path d="M3955.11803,1151.20934 C3954.11871,1151.19985 3953.12876,1151.01567 3952.19289,1150.66513 C3949.90694,1149.90699 3948.02136,1148.26233 3946.95967,1146.10058 C3945.89798,1143.93883 3945.74919,1141.4412 3946.54671,1139.16868 L4004.98132,981.959868 C4005.89261,978.70074 4008.53443,976.214695 4011.84286,975.502913 C4015.1513,974.791132 4018.58176,975.970777 4020.75274,978.566782 C4022.92371,981.162788 4023.47784,984.747836 4022.19197,987.878158 L3963.68934,1145.01895 C3962.44298,1148.69786 3959.00224,1151.18284 3955.11803,1151.20934 Z" id="Shape" fill="#FFFFFF" fill-rule="nonzero"></path>
            <path d="M2738.53539,887.675395 C2714.70949,887.654092 2694.01474,904.063279 2688.60408,927.266711 C2677.58382,891.552895 2649.42092,887.675395 2637.72039,887.675395 C2626.01987,887.675395 2597.78895,891.552895 2586.76868,927.266711 C2581.38628,904.073827 2560.71463,887.660597 2536.90539,887.675395 C2507.58605,887.675395 2484.66118,908.6275 2484.66118,935.293816 C2484.9568,946.083155 2487.12032,956.739611 2491.05566,966.79 L2530.57895,1079.37355 C2544.18421,1116.65197 2571.05461,1122.23013 2586.02039,1122.23013 C2608.43964,1122.87001 2628.91597,1109.57124 2637.44829,1088.82921 C2645.92561,1109.73621 2666.53124,1123.14751 2689.08026,1122.43421 C2704.04605,1122.43421 2731.18855,1116.85605 2744.52171,1079.44158 L2784.52118,966.517895 L2784.86132,965.633553 C2785.3375,964.136974 2785.74566,962.844474 2786.22184,961.551974 C2788.98791,954.448143 2790.52902,946.926603 2790.77961,939.307368 C2791.18769,925.385168 2785.79366,911.919143 2775.88708,902.128649 C2765.98049,892.338156 2752.45182,887.103229 2738.53539,887.675395 Z M2757.37868,956.858158 L2717.37921,1069.71382 C2712.48132,1083.31908 2704.38618,1093.52303 2689.08026,1093.52303 C2673.77434,1093.52303 2666.29145,1085.56395 2661.86974,1071.89066 L2637.78842,997.061711 L2637.17618,997.061711 L2613.09487,1071.89066 C2608.87724,1085.49592 2600.44197,1093.38697 2585.88434,1093.38697 C2571.32671,1093.38697 2562.48329,1083.31908 2557.58539,1069.64579 L2517.92605,957.470395 C2515.01442,950.443589 2513.35672,942.960898 2513.02816,935.361842 C2513.02816,924.953816 2522.82395,916.518553 2536.49724,916.518553 C2547.40848,916.491994 2556.74858,924.337685 2558.60579,935.089737 L2585.81632,1024.54434 L2586.49658,1024.54434 L2613.70711,937.0625 C2617.24447,924.341579 2623.775,916.654605 2637.44829,916.654605 C2651.12158,916.654605 2657.85618,924.477632 2661.18947,937.0625 L2688.4,1024.61237 L2689.08026,1024.61237 L2716.29079,935.157763 C2718.09232,924.363748 2727.45613,916.469338 2738.39934,916.518553 C2744.6374,916.019202 2750.78734,918.23719 2755.27068,922.603235 C2759.75402,926.969279 2762.13423,933.058269 2761.80039,939.307368 C2761.15529,945.335766 2759.66686,951.243713 2757.37868,956.858158 Z" id="Shape" fill="#FFFFFF" fill-rule="nonzero"></path>
        </g>
    </g>
</svg>