<?xml version="1.0" encoding="UTF-8"?>
<svg width="79px" height="79px" viewBox="0 0 79 79" version="1.1" xmlns="http://www.w3.org/2000/svg" xmlns:xlink="http://www.w3.org/1999/xlink">
    <!-- Generator: Sketch 50.2 (55047) - http://www.bohemiancoding.com/sketch -->
    <title>Shape</title>
    <desc>Created with Sketch.</desc>
    <defs></defs>
    <g id="Page-1" stroke="none" stroke-width="1" fill="none" fill-rule="evenodd">
        <g id="Loading-page---beginner" transform="translate(-775.000000, -609.000000)" fill="#FFFFFF" fill-rule="nonzero">
            <path d="M814.5,609 C792.727218,609 775,626.71129 775,648.5 C775,670.272782 792.727218,688 814.5,688 C836.272782,688 854,670.272782 854,648.5 C854,626.71129 836.272782,609 814.5,609 Z M779,648.317776 C779,643.218943 780.097852,638.372684 782.070804,634 L799,680 C787.162291,674.285518 779,662.240906 779,648.317776 Z M814.116788,684 C810.6,684 807.211679,683.496806 804,682.569042 L814.743066,652 L825.743066,681.531204 C825.823358,681.704177 825.90365,681.861425 826,682.018673 C822.290511,683.292383 818.291971,684 814.116788,684 Z M819.781834,631.7625 C821.929653,631.651667 823.869101,631.43 823.869101,631.43 C825.79252,631.208333 825.568121,628.405833 823.644702,628.516667 C823.644702,628.516667 817.858415,628.96 814.123776,628.96 C810.613535,628.96 804.715049,628.516667 804.715049,628.516667 C802.79163,628.405833 802.567231,631.319167 804.49065,631.43 C804.49065,631.43 806.317898,631.651667 808.241318,631.7625 L813.803206,646.835833 L805.9813,670 L792.966162,631.7625 C795.11398,631.651667 797.053428,631.43 797.053428,631.43 C798.976848,631.208333 798.752449,628.405833 796.829029,628.516667 C796.829029,628.516667 791.042743,628.96 787.308103,628.96 C786.634907,628.96 785.84951,628.944167 785,628.9125 C791.39537,619.333333 802.374889,613 814.861086,613 C824.157614,613 832.636687,616.515 839,622.2625 C838.839715,622.246667 838.695459,622.230833 838.535174,622.230833 C835.024933,622.230833 832.540516,625.255 832.540516,628.500833 C832.540516,631.414167 834.239537,633.868333 836.050757,636.781667 C837.413179,639.125 839,642.149167 839,646.519167 C839,649.543333 837.82992,653.0425 836.275156,657.935 L832.71683,669.699167 L819.781834,631.7625 Z M832,679 L843.053201,647.464464 C845.114518,642.371371 845.812444,638.303303 845.812444,634.667668 C845.812444,633.354354 845.731289,632.137137 845.568981,631 C848.393147,636.093093 850,641.922923 850,648.137137 C850,661.318318 842.761046,672.817818 832,679 Z" id="Shape"></path>
        </g>
    </g>
</svg>