<?xml version="1.0" encoding="UTF-8"?>
<svg width="168px" height="134px" viewBox="0 0 168 134" version="1.1" xmlns="http://www.w3.org/2000/svg" xmlns:xlink="http://www.w3.org/1999/xlink">
    <!-- Generator: Sketch 50.2 (55047) - http://www.bohemiancoding.com/sketch -->
    <title>Group 2</title>
    <desc>Created with Sketch.</desc>
    <defs></defs>
    <g id="Page-1" stroke="none" stroke-width="1" fill="none" fill-rule="evenodd">
        <g id="Loading-page---beginner" transform="translate(-683.000000, -219.000000)">
            <g id="Group-2" transform="translate(672.000000, 206.000000)">
                <g id="Group">
                    <ellipse id="Oval-3" fill="#F2F8FC" transform="translate(95.080568, 80.214356) rotate(10.000000) translate(-95.080568, -80.214356) " cx="95.0805683" cy="80.2143564" rx="84.0607492" ry="65.8295281"></ellipse>
                    <g id="Group-5" transform="translate(43.369863, 23.400000)">
                        <ellipse id="Oval-Copy" fill="#66C9FC" cx="53.5616438" cy="53.4594595" rx="53.5616438" ry="53.4594595"></ellipse>
                        <path d="M32.2458512,4.64864865 C19.8220613,13.7748269 11.760412,28.472763 11.760412,45.0500061 C11.760412,72.7365582 34.2476981,95.1809434 61.9871714,95.1809434 C78.5961008,95.1809434 93.3221311,87.1346739 102.465753,74.7345861 C94.2693727,93.6685275 75.390977,106.918919 53.411871,106.918919 C23.9133092,106.918919 0,83.0512313 0,53.6089466 C0,31.6717721 13.2757187,12.8293924 32.2458512,4.64864865 Z" id="Combined-Shape-Copy" fill="#1EB1FD"></path>
                    </g>
                </g>
                <path d="M83.4824219,61.4375 L81.9804688,73.2382812 L81.9804688,81.2070312 L88.0117188,90.3808594 L85.0117188,81.8095703 L86,81.8095703 L90.1933594,90.3808594 L97.9394531,97.9824219 L95.1933594,107.201172 L87.7988281,110.501953 L85.0117188,113.59375 L85.0117188,125.691406 L87.7988281,129.470703 L104.173828,129.470703 L119.666016,121.673828 L119.666016,113.59375 L110.572266,110.501953 L104.173828,107.201172 L104.173828,97.9824219 L104.173828,90.3808594 L111.408203,86.4335938 L115.583008,88.6699219 L117.411113,95.191876 L119.666016,97.9824219 L119.755859,90.3808594 L119.666016,81.2070312 L123.755859,71.9316406 L123.755859,65.9101562 L134.619141,56.6328125 L125.625977,49.9453125 L116.583008,49.9453125 C115.475093,52.9161503 114.836096,55.145317 114.666016,56.6328125 C114.393784,59.013711 116.772086,61.6870893 114.666016,63.7177734 C110.586256,67.6514998 108.655592,66.8914086 108.874023,61.4375 L104.173828,58.2910156 L111.408203,45.3447266 C106.985768,41.6804395 104.049244,39.742614 102.598633,39.53125 C101.756752,39.4085822 104.041088,43.5315813 100.449219,44.0253906 C98.7177954,44.2634263 93.9013892,43.4691555 86,41.6425781 L78.0117188,35.1494141 L66.2792969,44.0253906 L79.4599609,49.9453125 L83.4824219,61.4375 Z" id="Path-3" fill="#01E0B9"></path>
                <path d="M84.7958984,114.415771 C93.1777344,118.364176 104.731608,119.143555 119.45752,116.753906 C120.599447,118.428385 120.599447,120.176921 119.45752,121.999512 L113.15625,127.808105 C107.600911,130.514486 99.1435547,131.191081 87.7841797,129.837891 C86.0826823,128.484701 85.0865885,127.084717 84.7958984,125.637939 L84.7958984,114.415771 Z" id="Path-5" fill="#01B899"></path>
            </g>
        </g>
    </g>
</svg>